M48
; DRILL file {KiCad 9.0.6} date 2025-12-26T02:16:30-0800
; FORMAT={-:-/ absolute / inch / decimal}
; #@! TF.CreationDate,2025-12-26T02:16:30-08:00
; #@! TF.GenerationSoftware,Kicad,Pcbnew,9.0.6
; #@! TF.FileFunction,Plated,1,2,PTH
FMAT,2
INCH
; #@! TA.AperFunction,Plated,PTH,ViaDrill
T1C0.0110
; #@! TA.AperFunction,Plated,PTH,ViaDrill
T2C0.0118
; #@! TA.AperFunction,Plated,PTH,ViaDrill
T3C0.0120
; #@! TA.AperFunction,Plated,PTH,ComponentDrill
T4C0.0197
; #@! TA.AperFunction,Plated,PTH,ComponentDrill
T5C0.0236
%
G90
G05
T1
X5.625Y-3.29
X5.735Y-3.4096
X5.744Y-3.661
X5.77Y-3.64
X5.845Y-3.33
T2
X5.4921Y-3.6811
X5.4961Y-2.9646
X5.4961Y-3.0039
X5.4961Y-3.0433
X5.4961Y-3.0827
X5.4961Y-3.122
X5.4961Y-3.1614
X5.4961Y-3.2008
X5.6299Y-3.5276
X5.6417Y-3.2323
X5.691Y-3.11
X5.809Y-3.11
X5.875Y-3.535
X5.9843Y-3.9567
X6.0236Y-3.9567
X6.0433Y-3.7283
X6.063Y-3.9567
X6.0709Y-3.4724
X6.1024Y-3.9567
X6.1102Y-3.4724
X6.1142Y-3.3031
X6.1417Y-3.9567
X6.1496Y-3.4724
X6.1535Y-3.3031
X6.1811Y-3.9567
X6.1929Y-3.3031
X6.2205Y-3.9567
X6.2323Y-3.3031
X6.2953Y-2.9724
X6.2953Y-3.0118
X6.2953Y-3.0512
X6.2953Y-3.0906
X6.2953Y-3.1299
X6.2953Y-3.1693
X6.2953Y-3.2087
T3
X5.9021Y-3.6379
T4
X6.2571Y-3.3858
X6.2571Y-3.4252
X6.2571Y-3.5169
X6.2571Y-3.5563
X6.2571Y-3.648
X6.2571Y-3.6874
X6.2571Y-3.7791
X6.2571Y-3.8185
T5
G00X5.5899Y-3.0007
M15
G01X5.5899Y-2.9693
M16
G05
G00X5.5899Y-3.1712
M15
G01X5.5899Y-3.1279
M16
G05
G00X5.9301Y-3.0007
M15
G01X5.9301Y-2.9693
M16
G05
G00X5.9301Y-3.1712
M15
G01X5.9301Y-3.1279
M16
G05
M30
