%TF.GenerationSoftware,KiCad,Pcbnew,9.0.6*%
%TF.CreationDate,2025-12-26T02:16:26-08:00*%
%TF.ProjectId,NVG Monocular,4e564720-4d6f-46e6-9f63-756c61722e6b,rev?*%
%TF.SameCoordinates,Original*%
%TF.FileFunction,Legend,Top*%
%TF.FilePolarity,Positive*%
%FSLAX46Y46*%
G04 Gerber Fmt 4.6, Leading zero omitted, Abs format (unit mm)*
G04 Created by KiCad (PCBNEW 9.0.6) date 2025-12-26 02:16:26*
%MOMM*%
%LPD*%
G01*
G04 APERTURE LIST*
%ADD10C,0.100000*%
%ADD11C,0.146050*%
%ADD12C,0.130000*%
%ADD13C,0.139700*%
%ADD14C,0.150000*%
%ADD15C,0.120000*%
%ADD16C,0.152400*%
%ADD17C,0.200000*%
G04 APERTURE END LIST*
D10*
X146340986Y-107057419D02*
X146531462Y-107057419D01*
X146531462Y-107057419D02*
X146626700Y-107009800D01*
X146626700Y-107009800D02*
X146674319Y-106962180D01*
X146674319Y-106962180D02*
X146769557Y-106819323D01*
X146769557Y-106819323D02*
X146817176Y-106628847D01*
X146817176Y-106628847D02*
X146817176Y-106247895D01*
X146817176Y-106247895D02*
X146769557Y-106152657D01*
X146769557Y-106152657D02*
X146721938Y-106105038D01*
X146721938Y-106105038D02*
X146626700Y-106057419D01*
X146626700Y-106057419D02*
X146436224Y-106057419D01*
X146436224Y-106057419D02*
X146340986Y-106105038D01*
X146340986Y-106105038D02*
X146293367Y-106152657D01*
X146293367Y-106152657D02*
X146245748Y-106247895D01*
X146245748Y-106247895D02*
X146245748Y-106485990D01*
X146245748Y-106485990D02*
X146293367Y-106581228D01*
X146293367Y-106581228D02*
X146340986Y-106628847D01*
X146340986Y-106628847D02*
X146436224Y-106676466D01*
X146436224Y-106676466D02*
X146626700Y-106676466D01*
X146626700Y-106676466D02*
X146721938Y-106628847D01*
X146721938Y-106628847D02*
X146769557Y-106581228D01*
X146769557Y-106581228D02*
X146817176Y-106485990D01*
X147198129Y-106152657D02*
X147245748Y-106105038D01*
X147245748Y-106105038D02*
X147340986Y-106057419D01*
X147340986Y-106057419D02*
X147579081Y-106057419D01*
X147579081Y-106057419D02*
X147674319Y-106105038D01*
X147674319Y-106105038D02*
X147721938Y-106152657D01*
X147721938Y-106152657D02*
X147769557Y-106247895D01*
X147769557Y-106247895D02*
X147769557Y-106343133D01*
X147769557Y-106343133D02*
X147721938Y-106485990D01*
X147721938Y-106485990D02*
X147150510Y-107057419D01*
X147150510Y-107057419D02*
X147769557Y-107057419D01*
X148674319Y-106057419D02*
X148198129Y-106057419D01*
X148198129Y-106057419D02*
X148150510Y-106533609D01*
X148150510Y-106533609D02*
X148198129Y-106485990D01*
X148198129Y-106485990D02*
X148293367Y-106438371D01*
X148293367Y-106438371D02*
X148531462Y-106438371D01*
X148531462Y-106438371D02*
X148626700Y-106485990D01*
X148626700Y-106485990D02*
X148674319Y-106533609D01*
X148674319Y-106533609D02*
X148721938Y-106628847D01*
X148721938Y-106628847D02*
X148721938Y-106866942D01*
X148721938Y-106866942D02*
X148674319Y-106962180D01*
X148674319Y-106962180D02*
X148626700Y-107009800D01*
X148626700Y-107009800D02*
X148531462Y-107057419D01*
X148531462Y-107057419D02*
X148293367Y-107057419D01*
X148293367Y-107057419D02*
X148198129Y-107009800D01*
X148198129Y-107009800D02*
X148150510Y-106962180D01*
X149150510Y-106962180D02*
X149198129Y-107009800D01*
X149198129Y-107009800D02*
X149150510Y-107057419D01*
X149150510Y-107057419D02*
X149102891Y-107009800D01*
X149102891Y-107009800D02*
X149150510Y-106962180D01*
X149150510Y-106962180D02*
X149150510Y-107057419D01*
X150055271Y-106057419D02*
X149864795Y-106057419D01*
X149864795Y-106057419D02*
X149769557Y-106105038D01*
X149769557Y-106105038D02*
X149721938Y-106152657D01*
X149721938Y-106152657D02*
X149626700Y-106295514D01*
X149626700Y-106295514D02*
X149579081Y-106485990D01*
X149579081Y-106485990D02*
X149579081Y-106866942D01*
X149579081Y-106866942D02*
X149626700Y-106962180D01*
X149626700Y-106962180D02*
X149674319Y-107009800D01*
X149674319Y-107009800D02*
X149769557Y-107057419D01*
X149769557Y-107057419D02*
X149960033Y-107057419D01*
X149960033Y-107057419D02*
X150055271Y-107009800D01*
X150055271Y-107009800D02*
X150102890Y-106962180D01*
X150102890Y-106962180D02*
X150150509Y-106866942D01*
X150150509Y-106866942D02*
X150150509Y-106628847D01*
X150150509Y-106628847D02*
X150102890Y-106533609D01*
X150102890Y-106533609D02*
X150055271Y-106485990D01*
X150055271Y-106485990D02*
X149960033Y-106438371D01*
X149960033Y-106438371D02*
X149769557Y-106438371D01*
X149769557Y-106438371D02*
X149674319Y-106485990D01*
X149674319Y-106485990D02*
X149626700Y-106533609D01*
X149626700Y-106533609D02*
X149579081Y-106628847D01*
X150531462Y-106152657D02*
X150579081Y-106105038D01*
X150579081Y-106105038D02*
X150674319Y-106057419D01*
X150674319Y-106057419D02*
X150912414Y-106057419D01*
X150912414Y-106057419D02*
X151007652Y-106105038D01*
X151007652Y-106105038D02*
X151055271Y-106152657D01*
X151055271Y-106152657D02*
X151102890Y-106247895D01*
X151102890Y-106247895D02*
X151102890Y-106343133D01*
X151102890Y-106343133D02*
X151055271Y-106485990D01*
X151055271Y-106485990D02*
X150483843Y-107057419D01*
X150483843Y-107057419D02*
X151102890Y-107057419D01*
X151579081Y-107057419D02*
X151769557Y-107057419D01*
X151769557Y-107057419D02*
X151864795Y-107009800D01*
X151864795Y-107009800D02*
X151912414Y-106962180D01*
X151912414Y-106962180D02*
X152007652Y-106819323D01*
X152007652Y-106819323D02*
X152055271Y-106628847D01*
X152055271Y-106628847D02*
X152055271Y-106247895D01*
X152055271Y-106247895D02*
X152007652Y-106152657D01*
X152007652Y-106152657D02*
X151960033Y-106105038D01*
X151960033Y-106105038D02*
X151864795Y-106057419D01*
X151864795Y-106057419D02*
X151674319Y-106057419D01*
X151674319Y-106057419D02*
X151579081Y-106105038D01*
X151579081Y-106105038D02*
X151531462Y-106152657D01*
X151531462Y-106152657D02*
X151483843Y-106247895D01*
X151483843Y-106247895D02*
X151483843Y-106485990D01*
X151483843Y-106485990D02*
X151531462Y-106581228D01*
X151531462Y-106581228D02*
X151579081Y-106628847D01*
X151579081Y-106628847D02*
X151674319Y-106676466D01*
X151674319Y-106676466D02*
X151864795Y-106676466D01*
X151864795Y-106676466D02*
X151960033Y-106628847D01*
X151960033Y-106628847D02*
X152007652Y-106581228D01*
X152007652Y-106581228D02*
X152055271Y-106485990D01*
X152531462Y-107057419D02*
X152721938Y-107057419D01*
X152721938Y-107057419D02*
X152817176Y-107009800D01*
X152817176Y-107009800D02*
X152864795Y-106962180D01*
X152864795Y-106962180D02*
X152960033Y-106819323D01*
X152960033Y-106819323D02*
X153007652Y-106628847D01*
X153007652Y-106628847D02*
X153007652Y-106247895D01*
X153007652Y-106247895D02*
X152960033Y-106152657D01*
X152960033Y-106152657D02*
X152912414Y-106105038D01*
X152912414Y-106105038D02*
X152817176Y-106057419D01*
X152817176Y-106057419D02*
X152626700Y-106057419D01*
X152626700Y-106057419D02*
X152531462Y-106105038D01*
X152531462Y-106105038D02*
X152483843Y-106152657D01*
X152483843Y-106152657D02*
X152436224Y-106247895D01*
X152436224Y-106247895D02*
X152436224Y-106485990D01*
X152436224Y-106485990D02*
X152483843Y-106581228D01*
X152483843Y-106581228D02*
X152531462Y-106628847D01*
X152531462Y-106628847D02*
X152626700Y-106676466D01*
X152626700Y-106676466D02*
X152817176Y-106676466D01*
X152817176Y-106676466D02*
X152912414Y-106628847D01*
X152912414Y-106628847D02*
X152960033Y-106581228D01*
X152960033Y-106581228D02*
X153007652Y-106485990D01*
X137871200Y-87668800D02*
X137871200Y-108286420D01*
X161382200Y-108286420D02*
X161382200Y-87668800D01*
X137871200Y-107700000D02*
X161382200Y-107700000D01*
X137871200Y-107700000D02*
X138997704Y-107113579D01*
X137871200Y-107700000D02*
X138997704Y-108286421D01*
X161382200Y-107700000D02*
X160255696Y-108286421D01*
X161382200Y-107700000D02*
X160255696Y-107113579D01*
X167057419Y-89978323D02*
X167057419Y-90549751D01*
X167057419Y-90264037D02*
X166057419Y-90264037D01*
X166057419Y-90264037D02*
X166200276Y-90359275D01*
X166200276Y-90359275D02*
X166295514Y-90454513D01*
X166295514Y-90454513D02*
X166343133Y-90549751D01*
X167057419Y-89025942D02*
X167057419Y-89597370D01*
X167057419Y-89311656D02*
X166057419Y-89311656D01*
X166057419Y-89311656D02*
X166200276Y-89406894D01*
X166200276Y-89406894D02*
X166295514Y-89502132D01*
X166295514Y-89502132D02*
X166343133Y-89597370D01*
X166152657Y-88644989D02*
X166105038Y-88597370D01*
X166105038Y-88597370D02*
X166057419Y-88502132D01*
X166057419Y-88502132D02*
X166057419Y-88264037D01*
X166057419Y-88264037D02*
X166105038Y-88168799D01*
X166105038Y-88168799D02*
X166152657Y-88121180D01*
X166152657Y-88121180D02*
X166247895Y-88073561D01*
X166247895Y-88073561D02*
X166343133Y-88073561D01*
X166343133Y-88073561D02*
X166485990Y-88121180D01*
X166485990Y-88121180D02*
X167057419Y-88692608D01*
X167057419Y-88692608D02*
X167057419Y-88073561D01*
X166057419Y-87740227D02*
X166057419Y-87073561D01*
X166057419Y-87073561D02*
X167057419Y-87502132D01*
X166962180Y-86692608D02*
X167009800Y-86644989D01*
X167009800Y-86644989D02*
X167057419Y-86692608D01*
X167057419Y-86692608D02*
X167009800Y-86740227D01*
X167009800Y-86740227D02*
X166962180Y-86692608D01*
X166962180Y-86692608D02*
X167057419Y-86692608D01*
X166057419Y-86311656D02*
X166057419Y-85692609D01*
X166057419Y-85692609D02*
X166438371Y-86025942D01*
X166438371Y-86025942D02*
X166438371Y-85883085D01*
X166438371Y-85883085D02*
X166485990Y-85787847D01*
X166485990Y-85787847D02*
X166533609Y-85740228D01*
X166533609Y-85740228D02*
X166628847Y-85692609D01*
X166628847Y-85692609D02*
X166866942Y-85692609D01*
X166866942Y-85692609D02*
X166962180Y-85740228D01*
X166962180Y-85740228D02*
X167009800Y-85787847D01*
X167009800Y-85787847D02*
X167057419Y-85883085D01*
X167057419Y-85883085D02*
X167057419Y-86168799D01*
X167057419Y-86168799D02*
X167009800Y-86264037D01*
X167009800Y-86264037D02*
X166962180Y-86311656D01*
X167057419Y-84740228D02*
X167057419Y-85311656D01*
X167057419Y-85025942D02*
X166057419Y-85025942D01*
X166057419Y-85025942D02*
X166200276Y-85121180D01*
X166200276Y-85121180D02*
X166295514Y-85216418D01*
X166295514Y-85216418D02*
X166343133Y-85311656D01*
X166057419Y-83835466D02*
X166057419Y-84311656D01*
X166057419Y-84311656D02*
X166533609Y-84359275D01*
X166533609Y-84359275D02*
X166485990Y-84311656D01*
X166485990Y-84311656D02*
X166438371Y-84216418D01*
X166438371Y-84216418D02*
X166438371Y-83978323D01*
X166438371Y-83978323D02*
X166485990Y-83883085D01*
X166485990Y-83883085D02*
X166533609Y-83835466D01*
X166533609Y-83835466D02*
X166628847Y-83787847D01*
X166628847Y-83787847D02*
X166866942Y-83787847D01*
X166866942Y-83787847D02*
X166962180Y-83835466D01*
X166962180Y-83835466D02*
X167009800Y-83883085D01*
X167009800Y-83883085D02*
X167057419Y-83978323D01*
X167057419Y-83978323D02*
X167057419Y-84216418D01*
X167057419Y-84216418D02*
X167009800Y-84311656D01*
X167009800Y-84311656D02*
X166962180Y-84359275D01*
X158999300Y-101485700D02*
X168286420Y-101485700D01*
X168286420Y-72851900D02*
X158999300Y-72851900D01*
X167700000Y-101485700D02*
X167700000Y-72851900D01*
X167700000Y-101485700D02*
X167113579Y-100359196D01*
X167700000Y-101485700D02*
X168286421Y-100359196D01*
X167700000Y-72851900D02*
X168286421Y-73978404D01*
X167700000Y-72851900D02*
X167113579Y-73978404D01*
D11*
X160023157Y-93998819D02*
X160023157Y-93553715D01*
X160444071Y-87060991D02*
X160471891Y-87088810D01*
X160471891Y-87088810D02*
X160499710Y-87172267D01*
X160499710Y-87172267D02*
X160499710Y-87227905D01*
X160499710Y-87227905D02*
X160471891Y-87311362D01*
X160471891Y-87311362D02*
X160416252Y-87367000D01*
X160416252Y-87367000D02*
X160360614Y-87394819D01*
X160360614Y-87394819D02*
X160249338Y-87422638D01*
X160249338Y-87422638D02*
X160165881Y-87422638D01*
X160165881Y-87422638D02*
X160054605Y-87394819D01*
X160054605Y-87394819D02*
X159998967Y-87367000D01*
X159998967Y-87367000D02*
X159943329Y-87311362D01*
X159943329Y-87311362D02*
X159915510Y-87227905D01*
X159915510Y-87227905D02*
X159915510Y-87172267D01*
X159915510Y-87172267D02*
X159943329Y-87088810D01*
X159943329Y-87088810D02*
X159971148Y-87060991D01*
X159915510Y-86810619D02*
X160388433Y-86810619D01*
X160388433Y-86810619D02*
X160444071Y-86782800D01*
X160444071Y-86782800D02*
X160471891Y-86754981D01*
X160471891Y-86754981D02*
X160499710Y-86699343D01*
X160499710Y-86699343D02*
X160499710Y-86588067D01*
X160499710Y-86588067D02*
X160471891Y-86532429D01*
X160471891Y-86532429D02*
X160444071Y-86504610D01*
X160444071Y-86504610D02*
X160388433Y-86476791D01*
X160388433Y-86476791D02*
X159915510Y-86476791D01*
X160499710Y-85864772D02*
X160221519Y-86059505D01*
X160499710Y-86198600D02*
X159915510Y-86198600D01*
X159915510Y-86198600D02*
X159915510Y-85976048D01*
X159915510Y-85976048D02*
X159943329Y-85920410D01*
X159943329Y-85920410D02*
X159971148Y-85892591D01*
X159971148Y-85892591D02*
X160026786Y-85864772D01*
X160026786Y-85864772D02*
X160110243Y-85864772D01*
X160110243Y-85864772D02*
X160165881Y-85892591D01*
X160165881Y-85892591D02*
X160193700Y-85920410D01*
X160193700Y-85920410D02*
X160221519Y-85976048D01*
X160221519Y-85976048D02*
X160221519Y-86198600D01*
X160499710Y-85280572D02*
X160221519Y-85475305D01*
X160499710Y-85614400D02*
X159915510Y-85614400D01*
X159915510Y-85614400D02*
X159915510Y-85391848D01*
X159915510Y-85391848D02*
X159943329Y-85336210D01*
X159943329Y-85336210D02*
X159971148Y-85308391D01*
X159971148Y-85308391D02*
X160026786Y-85280572D01*
X160026786Y-85280572D02*
X160110243Y-85280572D01*
X160110243Y-85280572D02*
X160165881Y-85308391D01*
X160165881Y-85308391D02*
X160193700Y-85336210D01*
X160193700Y-85336210D02*
X160221519Y-85391848D01*
X160221519Y-85391848D02*
X160221519Y-85614400D01*
X160073957Y-96132419D02*
X160073957Y-95687315D01*
X160296510Y-95909867D02*
X159851405Y-95909867D01*
D12*
X155285714Y-81970811D02*
X155485714Y-82570811D01*
X155485714Y-82570811D02*
X155685714Y-81970811D01*
X155885715Y-82570811D02*
X155885715Y-82170811D01*
X155885715Y-81970811D02*
X155857143Y-81999382D01*
X155857143Y-81999382D02*
X155885715Y-82027954D01*
X155885715Y-82027954D02*
X155914286Y-81999382D01*
X155914286Y-81999382D02*
X155885715Y-81970811D01*
X155885715Y-81970811D02*
X155885715Y-82027954D01*
X156171429Y-82170811D02*
X156171429Y-82570811D01*
X156171429Y-82227954D02*
X156200000Y-82199382D01*
X156200000Y-82199382D02*
X156257143Y-82170811D01*
X156257143Y-82170811D02*
X156342857Y-82170811D01*
X156342857Y-82170811D02*
X156400000Y-82199382D01*
X156400000Y-82199382D02*
X156428572Y-82256525D01*
X156428572Y-82256525D02*
X156428572Y-82570811D01*
D13*
X160905230Y-93605064D02*
X160933049Y-93521607D01*
X160933049Y-93521607D02*
X160960868Y-93493788D01*
X160960868Y-93493788D02*
X161016506Y-93465969D01*
X161016506Y-93465969D02*
X161099963Y-93465969D01*
X161099963Y-93465969D02*
X161155601Y-93493788D01*
X161155601Y-93493788D02*
X161183421Y-93521607D01*
X161183421Y-93521607D02*
X161211240Y-93577245D01*
X161211240Y-93577245D02*
X161211240Y-93799797D01*
X161211240Y-93799797D02*
X160627040Y-93799797D01*
X160627040Y-93799797D02*
X160627040Y-93605064D01*
X160627040Y-93605064D02*
X160654859Y-93549426D01*
X160654859Y-93549426D02*
X160682678Y-93521607D01*
X160682678Y-93521607D02*
X160738316Y-93493788D01*
X160738316Y-93493788D02*
X160793954Y-93493788D01*
X160793954Y-93493788D02*
X160849592Y-93521607D01*
X160849592Y-93521607D02*
X160877411Y-93549426D01*
X160877411Y-93549426D02*
X160905230Y-93605064D01*
X160905230Y-93605064D02*
X160905230Y-93799797D01*
X161044325Y-93243416D02*
X161044325Y-92965226D01*
X161211240Y-93299054D02*
X160627040Y-93104321D01*
X160627040Y-93104321D02*
X161211240Y-92909588D01*
X160627040Y-92798311D02*
X160627040Y-92464483D01*
X161211240Y-92631397D02*
X160627040Y-92631397D01*
X160627040Y-92353206D02*
X160627040Y-92019378D01*
X161211240Y-92186292D02*
X160627040Y-92186292D01*
D11*
X160073957Y-97300819D02*
X160073957Y-96855715D01*
X160471891Y-91435838D02*
X160499710Y-91352381D01*
X160499710Y-91352381D02*
X160499710Y-91213286D01*
X160499710Y-91213286D02*
X160471891Y-91157648D01*
X160471891Y-91157648D02*
X160444071Y-91129829D01*
X160444071Y-91129829D02*
X160388433Y-91102010D01*
X160388433Y-91102010D02*
X160332795Y-91102010D01*
X160332795Y-91102010D02*
X160277157Y-91129829D01*
X160277157Y-91129829D02*
X160249338Y-91157648D01*
X160249338Y-91157648D02*
X160221519Y-91213286D01*
X160221519Y-91213286D02*
X160193700Y-91324562D01*
X160193700Y-91324562D02*
X160165881Y-91380200D01*
X160165881Y-91380200D02*
X160138062Y-91408019D01*
X160138062Y-91408019D02*
X160082424Y-91435838D01*
X160082424Y-91435838D02*
X160026786Y-91435838D01*
X160026786Y-91435838D02*
X159971148Y-91408019D01*
X159971148Y-91408019D02*
X159943329Y-91380200D01*
X159943329Y-91380200D02*
X159915510Y-91324562D01*
X159915510Y-91324562D02*
X159915510Y-91185467D01*
X159915510Y-91185467D02*
X159943329Y-91102010D01*
X160444071Y-90517810D02*
X160471891Y-90545629D01*
X160471891Y-90545629D02*
X160499710Y-90629086D01*
X160499710Y-90629086D02*
X160499710Y-90684724D01*
X160499710Y-90684724D02*
X160471891Y-90768181D01*
X160471891Y-90768181D02*
X160416252Y-90823819D01*
X160416252Y-90823819D02*
X160360614Y-90851638D01*
X160360614Y-90851638D02*
X160249338Y-90879457D01*
X160249338Y-90879457D02*
X160165881Y-90879457D01*
X160165881Y-90879457D02*
X160054605Y-90851638D01*
X160054605Y-90851638D02*
X159998967Y-90823819D01*
X159998967Y-90823819D02*
X159943329Y-90768181D01*
X159943329Y-90768181D02*
X159915510Y-90684724D01*
X159915510Y-90684724D02*
X159915510Y-90629086D01*
X159915510Y-90629086D02*
X159943329Y-90545629D01*
X159943329Y-90545629D02*
X159971148Y-90517810D01*
X160499710Y-89989248D02*
X160499710Y-90267438D01*
X160499710Y-90267438D02*
X159915510Y-90267438D01*
X160471891Y-89607038D02*
X160499710Y-89523581D01*
X160499710Y-89523581D02*
X160499710Y-89384486D01*
X160499710Y-89384486D02*
X160471891Y-89328848D01*
X160471891Y-89328848D02*
X160444071Y-89301029D01*
X160444071Y-89301029D02*
X160388433Y-89273210D01*
X160388433Y-89273210D02*
X160332795Y-89273210D01*
X160332795Y-89273210D02*
X160277157Y-89301029D01*
X160277157Y-89301029D02*
X160249338Y-89328848D01*
X160249338Y-89328848D02*
X160221519Y-89384486D01*
X160221519Y-89384486D02*
X160193700Y-89495762D01*
X160193700Y-89495762D02*
X160165881Y-89551400D01*
X160165881Y-89551400D02*
X160138062Y-89579219D01*
X160138062Y-89579219D02*
X160082424Y-89607038D01*
X160082424Y-89607038D02*
X160026786Y-89607038D01*
X160026786Y-89607038D02*
X159971148Y-89579219D01*
X159971148Y-89579219D02*
X159943329Y-89551400D01*
X159943329Y-89551400D02*
X159915510Y-89495762D01*
X159915510Y-89495762D02*
X159915510Y-89356667D01*
X159915510Y-89356667D02*
X159943329Y-89273210D01*
X160499710Y-89022838D02*
X159915510Y-89022838D01*
X159915510Y-89022838D02*
X159915510Y-88883743D01*
X159915510Y-88883743D02*
X159943329Y-88800286D01*
X159943329Y-88800286D02*
X159998967Y-88744648D01*
X159998967Y-88744648D02*
X160054605Y-88716829D01*
X160054605Y-88716829D02*
X160165881Y-88689010D01*
X160165881Y-88689010D02*
X160249338Y-88689010D01*
X160249338Y-88689010D02*
X160360614Y-88716829D01*
X160360614Y-88716829D02*
X160416252Y-88744648D01*
X160416252Y-88744648D02*
X160471891Y-88800286D01*
X160471891Y-88800286D02*
X160499710Y-88883743D01*
X160499710Y-88883743D02*
X160499710Y-89022838D01*
X160332795Y-88466457D02*
X160332795Y-88188267D01*
X160499710Y-88522095D02*
X159915510Y-88327362D01*
X159915510Y-88327362D02*
X160499710Y-88132629D01*
D13*
X160651711Y-97230007D02*
X160651711Y-97508197D01*
X160651711Y-97508197D02*
X160929901Y-97536016D01*
X160929901Y-97536016D02*
X160902082Y-97508197D01*
X160902082Y-97508197D02*
X160874263Y-97452559D01*
X160874263Y-97452559D02*
X160874263Y-97313464D01*
X160874263Y-97313464D02*
X160902082Y-97257826D01*
X160902082Y-97257826D02*
X160929901Y-97230007D01*
X160929901Y-97230007D02*
X160985539Y-97202188D01*
X160985539Y-97202188D02*
X161124634Y-97202188D01*
X161124634Y-97202188D02*
X161180272Y-97230007D01*
X161180272Y-97230007D02*
X161208092Y-97257826D01*
X161208092Y-97257826D02*
X161235911Y-97313464D01*
X161235911Y-97313464D02*
X161235911Y-97452559D01*
X161235911Y-97452559D02*
X161208092Y-97508197D01*
X161208092Y-97508197D02*
X161180272Y-97536016D01*
X160651711Y-97035273D02*
X161235911Y-96840540D01*
X161235911Y-96840540D02*
X160651711Y-96645807D01*
X160651711Y-96339797D02*
X160651711Y-96228521D01*
X160651711Y-96228521D02*
X160679530Y-96172883D01*
X160679530Y-96172883D02*
X160735168Y-96117245D01*
X160735168Y-96117245D02*
X160846444Y-96089426D01*
X160846444Y-96089426D02*
X161041177Y-96089426D01*
X161041177Y-96089426D02*
X161152453Y-96117245D01*
X161152453Y-96117245D02*
X161208092Y-96172883D01*
X161208092Y-96172883D02*
X161235911Y-96228521D01*
X161235911Y-96228521D02*
X161235911Y-96339797D01*
X161235911Y-96339797D02*
X161208092Y-96395435D01*
X161208092Y-96395435D02*
X161152453Y-96451073D01*
X161152453Y-96451073D02*
X161041177Y-96478892D01*
X161041177Y-96478892D02*
X160846444Y-96478892D01*
X160846444Y-96478892D02*
X160735168Y-96451073D01*
X160735168Y-96451073D02*
X160679530Y-96395435D01*
X160679530Y-96395435D02*
X160651711Y-96339797D01*
X160651711Y-95839054D02*
X161124634Y-95839054D01*
X161124634Y-95839054D02*
X161180272Y-95811235D01*
X161180272Y-95811235D02*
X161208092Y-95783416D01*
X161208092Y-95783416D02*
X161235911Y-95727778D01*
X161235911Y-95727778D02*
X161235911Y-95616502D01*
X161235911Y-95616502D02*
X161208092Y-95560864D01*
X161208092Y-95560864D02*
X161180272Y-95533045D01*
X161180272Y-95533045D02*
X161124634Y-95505226D01*
X161124634Y-95505226D02*
X160651711Y-95505226D01*
X160651711Y-95310492D02*
X160651711Y-94976664D01*
X161235911Y-95143578D02*
X160651711Y-95143578D01*
D11*
X160023157Y-92830419D02*
X160023157Y-92385315D01*
X160245710Y-92607867D02*
X159800605Y-92607867D01*
D12*
X138993656Y-86081611D02*
X139336514Y-86081611D01*
X139165085Y-86681611D02*
X139165085Y-86081611D01*
X139536514Y-86681611D02*
X139536514Y-86081611D01*
X139536514Y-86081611D02*
X139765085Y-86081611D01*
X139765085Y-86081611D02*
X139822228Y-86110182D01*
X139822228Y-86110182D02*
X139850799Y-86138754D01*
X139850799Y-86138754D02*
X139879371Y-86195897D01*
X139879371Y-86195897D02*
X139879371Y-86281611D01*
X139879371Y-86281611D02*
X139850799Y-86338754D01*
X139850799Y-86338754D02*
X139822228Y-86367325D01*
X139822228Y-86367325D02*
X139765085Y-86395897D01*
X139765085Y-86395897D02*
X139536514Y-86395897D01*
X140222228Y-86338754D02*
X140165085Y-86310182D01*
X140165085Y-86310182D02*
X140136514Y-86281611D01*
X140136514Y-86281611D02*
X140107942Y-86224468D01*
X140107942Y-86224468D02*
X140107942Y-86195897D01*
X140107942Y-86195897D02*
X140136514Y-86138754D01*
X140136514Y-86138754D02*
X140165085Y-86110182D01*
X140165085Y-86110182D02*
X140222228Y-86081611D01*
X140222228Y-86081611D02*
X140336514Y-86081611D01*
X140336514Y-86081611D02*
X140393657Y-86110182D01*
X140393657Y-86110182D02*
X140422228Y-86138754D01*
X140422228Y-86138754D02*
X140450799Y-86195897D01*
X140450799Y-86195897D02*
X140450799Y-86224468D01*
X140450799Y-86224468D02*
X140422228Y-86281611D01*
X140422228Y-86281611D02*
X140393657Y-86310182D01*
X140393657Y-86310182D02*
X140336514Y-86338754D01*
X140336514Y-86338754D02*
X140222228Y-86338754D01*
X140222228Y-86338754D02*
X140165085Y-86367325D01*
X140165085Y-86367325D02*
X140136514Y-86395897D01*
X140136514Y-86395897D02*
X140107942Y-86453040D01*
X140107942Y-86453040D02*
X140107942Y-86567325D01*
X140107942Y-86567325D02*
X140136514Y-86624468D01*
X140136514Y-86624468D02*
X140165085Y-86653040D01*
X140165085Y-86653040D02*
X140222228Y-86681611D01*
X140222228Y-86681611D02*
X140336514Y-86681611D01*
X140336514Y-86681611D02*
X140393657Y-86653040D01*
X140393657Y-86653040D02*
X140422228Y-86624468D01*
X140422228Y-86624468D02*
X140450799Y-86567325D01*
X140450799Y-86567325D02*
X140450799Y-86453040D01*
X140450799Y-86453040D02*
X140422228Y-86395897D01*
X140422228Y-86395897D02*
X140393657Y-86367325D01*
X140393657Y-86367325D02*
X140336514Y-86338754D01*
D14*
X152796738Y-92199070D02*
X152749598Y-92199070D01*
X152749598Y-92199070D02*
X152655317Y-92151929D01*
X152655317Y-92151929D02*
X152608176Y-92104789D01*
X152608176Y-92104789D02*
X152561036Y-92010508D01*
X152561036Y-92010508D02*
X152561036Y-91916227D01*
X152561036Y-91916227D02*
X152584606Y-91845516D01*
X152584606Y-91845516D02*
X152655317Y-91727665D01*
X152655317Y-91727665D02*
X152726027Y-91656955D01*
X152726027Y-91656955D02*
X152843879Y-91586244D01*
X152843879Y-91586244D02*
X152914589Y-91562674D01*
X152914589Y-91562674D02*
X153008870Y-91562674D01*
X153008870Y-91562674D02*
X153103151Y-91609814D01*
X153103151Y-91609814D02*
X153150291Y-91656955D01*
X153150291Y-91656955D02*
X153197432Y-91751236D01*
X153197432Y-91751236D02*
X153197432Y-91798376D01*
X153385994Y-91986938D02*
X153433134Y-91986938D01*
X153433134Y-91986938D02*
X153503845Y-92010508D01*
X153503845Y-92010508D02*
X153621696Y-92128359D01*
X153621696Y-92128359D02*
X153645266Y-92199070D01*
X153645266Y-92199070D02*
X153645266Y-92246210D01*
X153645266Y-92246210D02*
X153621696Y-92316921D01*
X153621696Y-92316921D02*
X153574556Y-92364061D01*
X153574556Y-92364061D02*
X153480275Y-92411202D01*
X153480275Y-92411202D02*
X152914589Y-92411202D01*
X152914589Y-92411202D02*
X153221002Y-92717615D01*
X152435733Y-99766566D02*
X152402400Y-99799900D01*
X152402400Y-99799900D02*
X152302400Y-99833233D01*
X152302400Y-99833233D02*
X152235733Y-99833233D01*
X152235733Y-99833233D02*
X152135733Y-99799900D01*
X152135733Y-99799900D02*
X152069067Y-99733233D01*
X152069067Y-99733233D02*
X152035733Y-99666566D01*
X152035733Y-99666566D02*
X152002400Y-99533233D01*
X152002400Y-99533233D02*
X152002400Y-99433233D01*
X152002400Y-99433233D02*
X152035733Y-99299900D01*
X152035733Y-99299900D02*
X152069067Y-99233233D01*
X152069067Y-99233233D02*
X152135733Y-99166566D01*
X152135733Y-99166566D02*
X152235733Y-99133233D01*
X152235733Y-99133233D02*
X152302400Y-99133233D01*
X152302400Y-99133233D02*
X152402400Y-99166566D01*
X152402400Y-99166566D02*
X152435733Y-99199900D01*
X152669067Y-99133233D02*
X153102400Y-99133233D01*
X153102400Y-99133233D02*
X152869067Y-99399900D01*
X152869067Y-99399900D02*
X152969067Y-99399900D01*
X152969067Y-99399900D02*
X153035733Y-99433233D01*
X153035733Y-99433233D02*
X153069067Y-99466566D01*
X153069067Y-99466566D02*
X153102400Y-99533233D01*
X153102400Y-99533233D02*
X153102400Y-99699900D01*
X153102400Y-99699900D02*
X153069067Y-99766566D01*
X153069067Y-99766566D02*
X153035733Y-99799900D01*
X153035733Y-99799900D02*
X152969067Y-99833233D01*
X152969067Y-99833233D02*
X152769067Y-99833233D01*
X152769067Y-99833233D02*
X152702400Y-99799900D01*
X152702400Y-99799900D02*
X152669067Y-99766566D01*
D12*
X157434056Y-76632811D02*
X157776914Y-76632811D01*
X157605485Y-77232811D02*
X157605485Y-76632811D01*
X157976914Y-77232811D02*
X157976914Y-76632811D01*
X157976914Y-76632811D02*
X158205485Y-76632811D01*
X158205485Y-76632811D02*
X158262628Y-76661382D01*
X158262628Y-76661382D02*
X158291199Y-76689954D01*
X158291199Y-76689954D02*
X158319771Y-76747097D01*
X158319771Y-76747097D02*
X158319771Y-76832811D01*
X158319771Y-76832811D02*
X158291199Y-76889954D01*
X158291199Y-76889954D02*
X158262628Y-76918525D01*
X158262628Y-76918525D02*
X158205485Y-76947097D01*
X158205485Y-76947097D02*
X157976914Y-76947097D01*
X158519771Y-76632811D02*
X158891199Y-76632811D01*
X158891199Y-76632811D02*
X158691199Y-76861382D01*
X158691199Y-76861382D02*
X158776914Y-76861382D01*
X158776914Y-76861382D02*
X158834057Y-76889954D01*
X158834057Y-76889954D02*
X158862628Y-76918525D01*
X158862628Y-76918525D02*
X158891199Y-76975668D01*
X158891199Y-76975668D02*
X158891199Y-77118525D01*
X158891199Y-77118525D02*
X158862628Y-77175668D01*
X158862628Y-77175668D02*
X158834057Y-77204240D01*
X158834057Y-77204240D02*
X158776914Y-77232811D01*
X158776914Y-77232811D02*
X158605485Y-77232811D01*
X158605485Y-77232811D02*
X158548342Y-77204240D01*
X158548342Y-77204240D02*
X158519771Y-77175668D01*
X155440114Y-76608840D02*
X154925828Y-77380268D01*
X155640114Y-77237411D02*
X155640114Y-76637411D01*
X155640114Y-76637411D02*
X155782971Y-76637411D01*
X155782971Y-76637411D02*
X155868685Y-76665982D01*
X155868685Y-76665982D02*
X155925828Y-76723125D01*
X155925828Y-76723125D02*
X155954399Y-76780268D01*
X155954399Y-76780268D02*
X155982971Y-76894554D01*
X155982971Y-76894554D02*
X155982971Y-76980268D01*
X155982971Y-76980268D02*
X155954399Y-77094554D01*
X155954399Y-77094554D02*
X155925828Y-77151697D01*
X155925828Y-77151697D02*
X155868685Y-77208840D01*
X155868685Y-77208840D02*
X155782971Y-77237411D01*
X155782971Y-77237411D02*
X155640114Y-77237411D01*
X156240114Y-77008840D02*
X156697257Y-77008840D01*
D14*
X148837998Y-85743810D02*
X148908708Y-85343116D01*
X148555155Y-85460968D02*
X149050130Y-84965993D01*
X149050130Y-84965993D02*
X149238691Y-85154555D01*
X149238691Y-85154555D02*
X149262262Y-85225265D01*
X149262262Y-85225265D02*
X149262262Y-85272406D01*
X149262262Y-85272406D02*
X149238691Y-85343116D01*
X149238691Y-85343116D02*
X149167981Y-85413827D01*
X149167981Y-85413827D02*
X149097270Y-85437397D01*
X149097270Y-85437397D02*
X149050130Y-85437397D01*
X149050130Y-85437397D02*
X148979419Y-85413827D01*
X148979419Y-85413827D02*
X148790857Y-85225265D01*
X149403683Y-85743810D02*
X149380113Y-85673100D01*
X149380113Y-85673100D02*
X149380113Y-85625959D01*
X149380113Y-85625959D02*
X149403683Y-85555248D01*
X149403683Y-85555248D02*
X149427253Y-85531678D01*
X149427253Y-85531678D02*
X149497964Y-85508108D01*
X149497964Y-85508108D02*
X149545104Y-85508108D01*
X149545104Y-85508108D02*
X149615815Y-85531678D01*
X149615815Y-85531678D02*
X149710096Y-85625959D01*
X149710096Y-85625959D02*
X149733666Y-85696670D01*
X149733666Y-85696670D02*
X149733666Y-85743810D01*
X149733666Y-85743810D02*
X149710096Y-85814521D01*
X149710096Y-85814521D02*
X149686526Y-85838091D01*
X149686526Y-85838091D02*
X149615815Y-85861661D01*
X149615815Y-85861661D02*
X149568675Y-85861661D01*
X149568675Y-85861661D02*
X149497964Y-85838091D01*
X149497964Y-85838091D02*
X149403683Y-85743810D01*
X149403683Y-85743810D02*
X149332972Y-85720240D01*
X149332972Y-85720240D02*
X149285832Y-85720240D01*
X149285832Y-85720240D02*
X149215121Y-85743810D01*
X149215121Y-85743810D02*
X149120840Y-85838091D01*
X149120840Y-85838091D02*
X149097270Y-85908802D01*
X149097270Y-85908802D02*
X149097270Y-85955942D01*
X149097270Y-85955942D02*
X149120840Y-86026653D01*
X149120840Y-86026653D02*
X149215121Y-86120934D01*
X149215121Y-86120934D02*
X149285832Y-86144504D01*
X149285832Y-86144504D02*
X149332972Y-86144504D01*
X149332972Y-86144504D02*
X149403683Y-86120934D01*
X149403683Y-86120934D02*
X149497964Y-86026653D01*
X149497964Y-86026653D02*
X149521534Y-85955942D01*
X149521534Y-85955942D02*
X149521534Y-85908802D01*
X149521534Y-85908802D02*
X149497964Y-85838091D01*
X138973733Y-85355233D02*
X138740400Y-85021900D01*
X138573733Y-85355233D02*
X138573733Y-84655233D01*
X138573733Y-84655233D02*
X138840400Y-84655233D01*
X138840400Y-84655233D02*
X138907067Y-84688566D01*
X138907067Y-84688566D02*
X138940400Y-84721900D01*
X138940400Y-84721900D02*
X138973733Y-84788566D01*
X138973733Y-84788566D02*
X138973733Y-84888566D01*
X138973733Y-84888566D02*
X138940400Y-84955233D01*
X138940400Y-84955233D02*
X138907067Y-84988566D01*
X138907067Y-84988566D02*
X138840400Y-85021900D01*
X138840400Y-85021900D02*
X138573733Y-85021900D01*
X139207067Y-84655233D02*
X139673733Y-84655233D01*
X139673733Y-84655233D02*
X139373733Y-85355233D01*
D12*
X138892056Y-82220811D02*
X139234914Y-82220811D01*
X139063485Y-82820811D02*
X139063485Y-82220811D01*
X139434914Y-82820811D02*
X139434914Y-82220811D01*
X139434914Y-82220811D02*
X139663485Y-82220811D01*
X139663485Y-82220811D02*
X139720628Y-82249382D01*
X139720628Y-82249382D02*
X139749199Y-82277954D01*
X139749199Y-82277954D02*
X139777771Y-82335097D01*
X139777771Y-82335097D02*
X139777771Y-82420811D01*
X139777771Y-82420811D02*
X139749199Y-82477954D01*
X139749199Y-82477954D02*
X139720628Y-82506525D01*
X139720628Y-82506525D02*
X139663485Y-82535097D01*
X139663485Y-82535097D02*
X139434914Y-82535097D01*
X139977771Y-82220811D02*
X140377771Y-82220811D01*
X140377771Y-82220811D02*
X140120628Y-82820811D01*
X138693600Y-83212840D02*
X138179314Y-83984268D01*
X138807885Y-83241411D02*
X139007885Y-83841411D01*
X139007885Y-83841411D02*
X139207885Y-83241411D01*
X139750743Y-83784268D02*
X139722171Y-83812840D01*
X139722171Y-83812840D02*
X139636457Y-83841411D01*
X139636457Y-83841411D02*
X139579314Y-83841411D01*
X139579314Y-83841411D02*
X139493600Y-83812840D01*
X139493600Y-83812840D02*
X139436457Y-83755697D01*
X139436457Y-83755697D02*
X139407886Y-83698554D01*
X139407886Y-83698554D02*
X139379314Y-83584268D01*
X139379314Y-83584268D02*
X139379314Y-83498554D01*
X139379314Y-83498554D02*
X139407886Y-83384268D01*
X139407886Y-83384268D02*
X139436457Y-83327125D01*
X139436457Y-83327125D02*
X139493600Y-83269982D01*
X139493600Y-83269982D02*
X139579314Y-83241411D01*
X139579314Y-83241411D02*
X139636457Y-83241411D01*
X139636457Y-83241411D02*
X139722171Y-83269982D01*
X139722171Y-83269982D02*
X139750743Y-83298554D01*
X140350743Y-83784268D02*
X140322171Y-83812840D01*
X140322171Y-83812840D02*
X140236457Y-83841411D01*
X140236457Y-83841411D02*
X140179314Y-83841411D01*
X140179314Y-83841411D02*
X140093600Y-83812840D01*
X140093600Y-83812840D02*
X140036457Y-83755697D01*
X140036457Y-83755697D02*
X140007886Y-83698554D01*
X140007886Y-83698554D02*
X139979314Y-83584268D01*
X139979314Y-83584268D02*
X139979314Y-83498554D01*
X139979314Y-83498554D02*
X140007886Y-83384268D01*
X140007886Y-83384268D02*
X140036457Y-83327125D01*
X140036457Y-83327125D02*
X140093600Y-83269982D01*
X140093600Y-83269982D02*
X140179314Y-83241411D01*
X140179314Y-83241411D02*
X140236457Y-83241411D01*
X140236457Y-83241411D02*
X140322171Y-83269982D01*
X140322171Y-83269982D02*
X140350743Y-83298554D01*
D14*
X147269295Y-92012419D02*
X147269295Y-92821942D01*
X147269295Y-92821942D02*
X147316914Y-92917180D01*
X147316914Y-92917180D02*
X147364533Y-92964800D01*
X147364533Y-92964800D02*
X147459771Y-93012419D01*
X147459771Y-93012419D02*
X147650247Y-93012419D01*
X147650247Y-93012419D02*
X147745485Y-92964800D01*
X147745485Y-92964800D02*
X147793104Y-92917180D01*
X147793104Y-92917180D02*
X147840723Y-92821942D01*
X147840723Y-92821942D02*
X147840723Y-92012419D01*
X148840723Y-93012419D02*
X148269295Y-93012419D01*
X148555009Y-93012419D02*
X148555009Y-92012419D01*
X148555009Y-92012419D02*
X148459771Y-92155276D01*
X148459771Y-92155276D02*
X148364533Y-92250514D01*
X148364533Y-92250514D02*
X148269295Y-92298133D01*
D12*
X154335256Y-88875611D02*
X154678114Y-88875611D01*
X154506685Y-89475611D02*
X154506685Y-88875611D01*
X154878114Y-89475611D02*
X154878114Y-88875611D01*
X154878114Y-88875611D02*
X155106685Y-88875611D01*
X155106685Y-88875611D02*
X155163828Y-88904182D01*
X155163828Y-88904182D02*
X155192399Y-88932754D01*
X155192399Y-88932754D02*
X155220971Y-88989897D01*
X155220971Y-88989897D02*
X155220971Y-89075611D01*
X155220971Y-89075611D02*
X155192399Y-89132754D01*
X155192399Y-89132754D02*
X155163828Y-89161325D01*
X155163828Y-89161325D02*
X155106685Y-89189897D01*
X155106685Y-89189897D02*
X154878114Y-89189897D01*
X155449542Y-88932754D02*
X155478114Y-88904182D01*
X155478114Y-88904182D02*
X155535257Y-88875611D01*
X155535257Y-88875611D02*
X155678114Y-88875611D01*
X155678114Y-88875611D02*
X155735257Y-88904182D01*
X155735257Y-88904182D02*
X155763828Y-88932754D01*
X155763828Y-88932754D02*
X155792399Y-88989897D01*
X155792399Y-88989897D02*
X155792399Y-89047040D01*
X155792399Y-89047040D02*
X155763828Y-89132754D01*
X155763828Y-89132754D02*
X155420971Y-89475611D01*
X155420971Y-89475611D02*
X155792399Y-89475611D01*
X154014628Y-89816840D02*
X153500342Y-90588268D01*
X154414628Y-90131125D02*
X154500342Y-90159697D01*
X154500342Y-90159697D02*
X154528913Y-90188268D01*
X154528913Y-90188268D02*
X154557485Y-90245411D01*
X154557485Y-90245411D02*
X154557485Y-90331125D01*
X154557485Y-90331125D02*
X154528913Y-90388268D01*
X154528913Y-90388268D02*
X154500342Y-90416840D01*
X154500342Y-90416840D02*
X154443199Y-90445411D01*
X154443199Y-90445411D02*
X154214628Y-90445411D01*
X154214628Y-90445411D02*
X154214628Y-89845411D01*
X154214628Y-89845411D02*
X154414628Y-89845411D01*
X154414628Y-89845411D02*
X154471771Y-89873982D01*
X154471771Y-89873982D02*
X154500342Y-89902554D01*
X154500342Y-89902554D02*
X154528913Y-89959697D01*
X154528913Y-89959697D02*
X154528913Y-90016840D01*
X154528913Y-90016840D02*
X154500342Y-90073982D01*
X154500342Y-90073982D02*
X154471771Y-90102554D01*
X154471771Y-90102554D02*
X154414628Y-90131125D01*
X154414628Y-90131125D02*
X154214628Y-90131125D01*
X154786056Y-90273982D02*
X155071771Y-90273982D01*
X154728913Y-90445411D02*
X154928913Y-89845411D01*
X154928913Y-89845411D02*
X155128913Y-90445411D01*
X155243199Y-89845411D02*
X155586057Y-89845411D01*
X155414628Y-90445411D02*
X155414628Y-89845411D01*
X155700342Y-89845411D02*
X156043200Y-89845411D01*
X155871771Y-90445411D02*
X155871771Y-89845411D01*
X156243200Y-90216840D02*
X156700343Y-90216840D01*
X156471771Y-90445411D02*
X156471771Y-89988268D01*
D14*
X145983333Y-82305366D02*
X145950000Y-82338700D01*
X145950000Y-82338700D02*
X145850000Y-82372033D01*
X145850000Y-82372033D02*
X145783333Y-82372033D01*
X145783333Y-82372033D02*
X145683333Y-82338700D01*
X145683333Y-82338700D02*
X145616667Y-82272033D01*
X145616667Y-82272033D02*
X145583333Y-82205366D01*
X145583333Y-82205366D02*
X145550000Y-82072033D01*
X145550000Y-82072033D02*
X145550000Y-81972033D01*
X145550000Y-81972033D02*
X145583333Y-81838700D01*
X145583333Y-81838700D02*
X145616667Y-81772033D01*
X145616667Y-81772033D02*
X145683333Y-81705366D01*
X145683333Y-81705366D02*
X145783333Y-81672033D01*
X145783333Y-81672033D02*
X145850000Y-81672033D01*
X145850000Y-81672033D02*
X145950000Y-81705366D01*
X145950000Y-81705366D02*
X145983333Y-81738700D01*
X146216667Y-81672033D02*
X146683333Y-81672033D01*
X146683333Y-81672033D02*
X146383333Y-82372033D01*
X157111733Y-94355095D02*
X157111733Y-94926523D01*
X157111733Y-94926523D02*
X157073638Y-95040809D01*
X157073638Y-95040809D02*
X156997447Y-95117000D01*
X156997447Y-95117000D02*
X156883162Y-95155095D01*
X156883162Y-95155095D02*
X156806971Y-95155095D01*
X157835543Y-94621761D02*
X157835543Y-95155095D01*
X157645067Y-94317000D02*
X157454590Y-94888428D01*
X157454590Y-94888428D02*
X157949829Y-94888428D01*
D12*
X138815856Y-94288811D02*
X139158714Y-94288811D01*
X138987285Y-94888811D02*
X138987285Y-94288811D01*
X139358714Y-94888811D02*
X139358714Y-94288811D01*
X139358714Y-94288811D02*
X139587285Y-94288811D01*
X139587285Y-94288811D02*
X139644428Y-94317382D01*
X139644428Y-94317382D02*
X139672999Y-94345954D01*
X139672999Y-94345954D02*
X139701571Y-94403097D01*
X139701571Y-94403097D02*
X139701571Y-94488811D01*
X139701571Y-94488811D02*
X139672999Y-94545954D01*
X139672999Y-94545954D02*
X139644428Y-94574525D01*
X139644428Y-94574525D02*
X139587285Y-94603097D01*
X139587285Y-94603097D02*
X139358714Y-94603097D01*
X140215857Y-94288811D02*
X140101571Y-94288811D01*
X140101571Y-94288811D02*
X140044428Y-94317382D01*
X140044428Y-94317382D02*
X140015857Y-94345954D01*
X140015857Y-94345954D02*
X139958714Y-94431668D01*
X139958714Y-94431668D02*
X139930142Y-94545954D01*
X139930142Y-94545954D02*
X139930142Y-94774525D01*
X139930142Y-94774525D02*
X139958714Y-94831668D01*
X139958714Y-94831668D02*
X139987285Y-94860240D01*
X139987285Y-94860240D02*
X140044428Y-94888811D01*
X140044428Y-94888811D02*
X140158714Y-94888811D01*
X140158714Y-94888811D02*
X140215857Y-94860240D01*
X140215857Y-94860240D02*
X140244428Y-94831668D01*
X140244428Y-94831668D02*
X140272999Y-94774525D01*
X140272999Y-94774525D02*
X140272999Y-94631668D01*
X140272999Y-94631668D02*
X140244428Y-94574525D01*
X140244428Y-94574525D02*
X140215857Y-94545954D01*
X140215857Y-94545954D02*
X140158714Y-94517382D01*
X140158714Y-94517382D02*
X140044428Y-94517382D01*
X140044428Y-94517382D02*
X139987285Y-94545954D01*
X139987285Y-94545954D02*
X139958714Y-94574525D01*
X139958714Y-94574525D02*
X139930142Y-94631668D01*
X139144429Y-97557240D02*
X138630143Y-98328668D01*
X139344429Y-98185811D02*
X139344429Y-97585811D01*
X139630143Y-98185811D02*
X139630143Y-97585811D01*
X139630143Y-97585811D02*
X139973000Y-98185811D01*
X139973000Y-98185811D02*
X139973000Y-97585811D01*
X140172999Y-97585811D02*
X140515857Y-97585811D01*
X140344428Y-98185811D02*
X140344428Y-97585811D01*
D14*
X156768876Y-98609495D02*
X156768876Y-97809495D01*
X156768876Y-97809495D02*
X157226019Y-98609495D01*
X157226019Y-98609495D02*
X157226019Y-97809495D01*
X158026018Y-98609495D02*
X157568875Y-98609495D01*
X157797447Y-98609495D02*
X157797447Y-97809495D01*
X157797447Y-97809495D02*
X157721256Y-97923780D01*
X157721256Y-97923780D02*
X157645066Y-97999971D01*
X157645066Y-97999971D02*
X157568875Y-98038066D01*
X157111733Y-90849895D02*
X157111733Y-91421323D01*
X157111733Y-91421323D02*
X157073638Y-91535609D01*
X157073638Y-91535609D02*
X156997447Y-91611800D01*
X156997447Y-91611800D02*
X156883162Y-91649895D01*
X156883162Y-91649895D02*
X156806971Y-91649895D01*
X157911733Y-91649895D02*
X157454590Y-91649895D01*
X157683162Y-91649895D02*
X157683162Y-90849895D01*
X157683162Y-90849895D02*
X157606971Y-90964180D01*
X157606971Y-90964180D02*
X157530781Y-91040371D01*
X157530781Y-91040371D02*
X157454590Y-91078466D01*
X149336933Y-90994033D02*
X149103600Y-90660700D01*
X148936933Y-90994033D02*
X148936933Y-90294033D01*
X148936933Y-90294033D02*
X149203600Y-90294033D01*
X149203600Y-90294033D02*
X149270267Y-90327366D01*
X149270267Y-90327366D02*
X149303600Y-90360700D01*
X149303600Y-90360700D02*
X149336933Y-90427366D01*
X149336933Y-90427366D02*
X149336933Y-90527366D01*
X149336933Y-90527366D02*
X149303600Y-90594033D01*
X149303600Y-90594033D02*
X149270267Y-90627366D01*
X149270267Y-90627366D02*
X149203600Y-90660700D01*
X149203600Y-90660700D02*
X148936933Y-90660700D01*
X149970267Y-90294033D02*
X149636933Y-90294033D01*
X149636933Y-90294033D02*
X149603600Y-90627366D01*
X149603600Y-90627366D02*
X149636933Y-90594033D01*
X149636933Y-90594033D02*
X149703600Y-90560700D01*
X149703600Y-90560700D02*
X149870267Y-90560700D01*
X149870267Y-90560700D02*
X149936933Y-90594033D01*
X149936933Y-90594033D02*
X149970267Y-90627366D01*
X149970267Y-90627366D02*
X150003600Y-90694033D01*
X150003600Y-90694033D02*
X150003600Y-90860700D01*
X150003600Y-90860700D02*
X149970267Y-90927366D01*
X149970267Y-90927366D02*
X149936933Y-90960700D01*
X149936933Y-90960700D02*
X149870267Y-90994033D01*
X149870267Y-90994033D02*
X149703600Y-90994033D01*
X149703600Y-90994033D02*
X149636933Y-90960700D01*
X149636933Y-90960700D02*
X149603600Y-90927366D01*
X149387733Y-89317633D02*
X149154400Y-88984300D01*
X148987733Y-89317633D02*
X148987733Y-88617633D01*
X148987733Y-88617633D02*
X149254400Y-88617633D01*
X149254400Y-88617633D02*
X149321067Y-88650966D01*
X149321067Y-88650966D02*
X149354400Y-88684300D01*
X149354400Y-88684300D02*
X149387733Y-88750966D01*
X149387733Y-88750966D02*
X149387733Y-88850966D01*
X149387733Y-88850966D02*
X149354400Y-88917633D01*
X149354400Y-88917633D02*
X149321067Y-88950966D01*
X149321067Y-88950966D02*
X149254400Y-88984300D01*
X149254400Y-88984300D02*
X148987733Y-88984300D01*
X149987733Y-88850966D02*
X149987733Y-89317633D01*
X149821067Y-88584300D02*
X149654400Y-89084300D01*
X149654400Y-89084300D02*
X150087733Y-89084300D01*
X157111733Y-87700295D02*
X157111733Y-88271723D01*
X157111733Y-88271723D02*
X157073638Y-88386009D01*
X157073638Y-88386009D02*
X156997447Y-88462200D01*
X156997447Y-88462200D02*
X156883162Y-88500295D01*
X156883162Y-88500295D02*
X156806971Y-88500295D01*
X157416495Y-87700295D02*
X157911733Y-87700295D01*
X157911733Y-87700295D02*
X157645067Y-88005057D01*
X157645067Y-88005057D02*
X157759352Y-88005057D01*
X157759352Y-88005057D02*
X157835543Y-88043152D01*
X157835543Y-88043152D02*
X157873638Y-88081247D01*
X157873638Y-88081247D02*
X157911733Y-88157438D01*
X157911733Y-88157438D02*
X157911733Y-88347914D01*
X157911733Y-88347914D02*
X157873638Y-88424104D01*
X157873638Y-88424104D02*
X157835543Y-88462200D01*
X157835543Y-88462200D02*
X157759352Y-88500295D01*
X157759352Y-88500295D02*
X157530781Y-88500295D01*
X157530781Y-88500295D02*
X157454590Y-88462200D01*
X157454590Y-88462200D02*
X157416495Y-88424104D01*
X138780775Y-92041833D02*
X138733635Y-92041833D01*
X138733635Y-92041833D02*
X138639354Y-91994692D01*
X138639354Y-91994692D02*
X138592213Y-91947552D01*
X138592213Y-91947552D02*
X138545073Y-91853271D01*
X138545073Y-91853271D02*
X138545073Y-91758990D01*
X138545073Y-91758990D02*
X138568643Y-91688279D01*
X138568643Y-91688279D02*
X138639354Y-91570428D01*
X138639354Y-91570428D02*
X138710064Y-91499718D01*
X138710064Y-91499718D02*
X138827916Y-91429007D01*
X138827916Y-91429007D02*
X138898626Y-91405437D01*
X138898626Y-91405437D02*
X138992907Y-91405437D01*
X138992907Y-91405437D02*
X139087188Y-91452577D01*
X139087188Y-91452577D02*
X139134328Y-91499718D01*
X139134328Y-91499718D02*
X139181469Y-91593999D01*
X139181469Y-91593999D02*
X139181469Y-91641139D01*
X139676444Y-92041833D02*
X139440741Y-91806131D01*
X139440741Y-91806131D02*
X139181469Y-92018263D01*
X139181469Y-92018263D02*
X139228609Y-92018263D01*
X139228609Y-92018263D02*
X139299320Y-92041833D01*
X139299320Y-92041833D02*
X139417171Y-92159684D01*
X139417171Y-92159684D02*
X139440741Y-92230395D01*
X139440741Y-92230395D02*
X139440741Y-92277535D01*
X139440741Y-92277535D02*
X139417171Y-92348246D01*
X139417171Y-92348246D02*
X139299320Y-92466097D01*
X139299320Y-92466097D02*
X139228609Y-92489667D01*
X139228609Y-92489667D02*
X139181469Y-92489667D01*
X139181469Y-92489667D02*
X139110758Y-92466097D01*
X139110758Y-92466097D02*
X138992907Y-92348246D01*
X138992907Y-92348246D02*
X138969337Y-92277535D01*
X138969337Y-92277535D02*
X138969337Y-92230395D01*
X155027333Y-99565619D02*
X154694000Y-99089428D01*
X154455905Y-99565619D02*
X154455905Y-98565619D01*
X154455905Y-98565619D02*
X154836857Y-98565619D01*
X154836857Y-98565619D02*
X154932095Y-98613238D01*
X154932095Y-98613238D02*
X154979714Y-98660857D01*
X154979714Y-98660857D02*
X155027333Y-98756095D01*
X155027333Y-98756095D02*
X155027333Y-98898952D01*
X155027333Y-98898952D02*
X154979714Y-98994190D01*
X154979714Y-98994190D02*
X154932095Y-99041809D01*
X154932095Y-99041809D02*
X154836857Y-99089428D01*
X154836857Y-99089428D02*
X154455905Y-99089428D01*
X155408286Y-98660857D02*
X155455905Y-98613238D01*
X155455905Y-98613238D02*
X155551143Y-98565619D01*
X155551143Y-98565619D02*
X155789238Y-98565619D01*
X155789238Y-98565619D02*
X155884476Y-98613238D01*
X155884476Y-98613238D02*
X155932095Y-98660857D01*
X155932095Y-98660857D02*
X155979714Y-98756095D01*
X155979714Y-98756095D02*
X155979714Y-98851333D01*
X155979714Y-98851333D02*
X155932095Y-98994190D01*
X155932095Y-98994190D02*
X155360667Y-99565619D01*
X155360667Y-99565619D02*
X155979714Y-99565619D01*
D12*
X157434056Y-79426811D02*
X157776914Y-79426811D01*
X157605485Y-80026811D02*
X157605485Y-79426811D01*
X157976914Y-80026811D02*
X157976914Y-79426811D01*
X157976914Y-79426811D02*
X158205485Y-79426811D01*
X158205485Y-79426811D02*
X158262628Y-79455382D01*
X158262628Y-79455382D02*
X158291199Y-79483954D01*
X158291199Y-79483954D02*
X158319771Y-79541097D01*
X158319771Y-79541097D02*
X158319771Y-79626811D01*
X158319771Y-79626811D02*
X158291199Y-79683954D01*
X158291199Y-79683954D02*
X158262628Y-79712525D01*
X158262628Y-79712525D02*
X158205485Y-79741097D01*
X158205485Y-79741097D02*
X157976914Y-79741097D01*
X158605485Y-80026811D02*
X158719771Y-80026811D01*
X158719771Y-80026811D02*
X158776914Y-79998240D01*
X158776914Y-79998240D02*
X158805485Y-79969668D01*
X158805485Y-79969668D02*
X158862628Y-79883954D01*
X158862628Y-79883954D02*
X158891199Y-79769668D01*
X158891199Y-79769668D02*
X158891199Y-79541097D01*
X158891199Y-79541097D02*
X158862628Y-79483954D01*
X158862628Y-79483954D02*
X158834057Y-79455382D01*
X158834057Y-79455382D02*
X158776914Y-79426811D01*
X158776914Y-79426811D02*
X158662628Y-79426811D01*
X158662628Y-79426811D02*
X158605485Y-79455382D01*
X158605485Y-79455382D02*
X158576914Y-79483954D01*
X158576914Y-79483954D02*
X158548342Y-79541097D01*
X158548342Y-79541097D02*
X158548342Y-79683954D01*
X158548342Y-79683954D02*
X158576914Y-79741097D01*
X158576914Y-79741097D02*
X158605485Y-79769668D01*
X158605485Y-79769668D02*
X158662628Y-79798240D01*
X158662628Y-79798240D02*
X158776914Y-79798240D01*
X158776914Y-79798240D02*
X158834057Y-79769668D01*
X158834057Y-79769668D02*
X158862628Y-79741097D01*
X158862628Y-79741097D02*
X158891199Y-79683954D01*
X155397257Y-79459982D02*
X155340115Y-79431411D01*
X155340115Y-79431411D02*
X155254400Y-79431411D01*
X155254400Y-79431411D02*
X155168686Y-79459982D01*
X155168686Y-79459982D02*
X155111543Y-79517125D01*
X155111543Y-79517125D02*
X155082972Y-79574268D01*
X155082972Y-79574268D02*
X155054400Y-79688554D01*
X155054400Y-79688554D02*
X155054400Y-79774268D01*
X155054400Y-79774268D02*
X155082972Y-79888554D01*
X155082972Y-79888554D02*
X155111543Y-79945697D01*
X155111543Y-79945697D02*
X155168686Y-80002840D01*
X155168686Y-80002840D02*
X155254400Y-80031411D01*
X155254400Y-80031411D02*
X155311543Y-80031411D01*
X155311543Y-80031411D02*
X155397257Y-80002840D01*
X155397257Y-80002840D02*
X155425829Y-79974268D01*
X155425829Y-79974268D02*
X155425829Y-79774268D01*
X155425829Y-79774268D02*
X155311543Y-79774268D01*
X155682972Y-80031411D02*
X155682972Y-79431411D01*
X155682972Y-79431411D02*
X156025829Y-80031411D01*
X156025829Y-80031411D02*
X156025829Y-79431411D01*
X156311543Y-80031411D02*
X156311543Y-79431411D01*
X156311543Y-79431411D02*
X156454400Y-79431411D01*
X156454400Y-79431411D02*
X156540114Y-79459982D01*
X156540114Y-79459982D02*
X156597257Y-79517125D01*
X156597257Y-79517125D02*
X156625828Y-79574268D01*
X156625828Y-79574268D02*
X156654400Y-79688554D01*
X156654400Y-79688554D02*
X156654400Y-79774268D01*
X156654400Y-79774268D02*
X156625828Y-79888554D01*
X156625828Y-79888554D02*
X156597257Y-79945697D01*
X156597257Y-79945697D02*
X156540114Y-80002840D01*
X156540114Y-80002840D02*
X156454400Y-80031411D01*
X156454400Y-80031411D02*
X156311543Y-80031411D01*
X157434056Y-81966811D02*
X157776914Y-81966811D01*
X157605485Y-82566811D02*
X157605485Y-81966811D01*
X157976914Y-82566811D02*
X157976914Y-81966811D01*
X157976914Y-81966811D02*
X158205485Y-81966811D01*
X158205485Y-81966811D02*
X158262628Y-81995382D01*
X158262628Y-81995382D02*
X158291199Y-82023954D01*
X158291199Y-82023954D02*
X158319771Y-82081097D01*
X158319771Y-82081097D02*
X158319771Y-82166811D01*
X158319771Y-82166811D02*
X158291199Y-82223954D01*
X158291199Y-82223954D02*
X158262628Y-82252525D01*
X158262628Y-82252525D02*
X158205485Y-82281097D01*
X158205485Y-82281097D02*
X157976914Y-82281097D01*
X158891199Y-82566811D02*
X158548342Y-82566811D01*
X158719771Y-82566811D02*
X158719771Y-81966811D01*
X158719771Y-81966811D02*
X158662628Y-82052525D01*
X158662628Y-82052525D02*
X158605485Y-82109668D01*
X158605485Y-82109668D02*
X158548342Y-82138240D01*
D14*
X141574775Y-92702233D02*
X141527635Y-92702233D01*
X141527635Y-92702233D02*
X141433354Y-92655092D01*
X141433354Y-92655092D02*
X141386213Y-92607952D01*
X141386213Y-92607952D02*
X141339073Y-92513671D01*
X141339073Y-92513671D02*
X141339073Y-92419390D01*
X141339073Y-92419390D02*
X141362643Y-92348679D01*
X141362643Y-92348679D02*
X141433354Y-92230828D01*
X141433354Y-92230828D02*
X141504064Y-92160118D01*
X141504064Y-92160118D02*
X141621916Y-92089407D01*
X141621916Y-92089407D02*
X141692626Y-92065837D01*
X141692626Y-92065837D02*
X141786907Y-92065837D01*
X141786907Y-92065837D02*
X141881188Y-92112977D01*
X141881188Y-92112977D02*
X141928328Y-92160118D01*
X141928328Y-92160118D02*
X141975469Y-92254399D01*
X141975469Y-92254399D02*
X141975469Y-92301539D01*
X142281882Y-92843654D02*
X141951899Y-93173637D01*
X142352593Y-92537241D02*
X141881188Y-92772943D01*
X141881188Y-92772943D02*
X142187601Y-93079356D01*
D12*
X141482856Y-86030811D02*
X141825714Y-86030811D01*
X141654285Y-86630811D02*
X141654285Y-86030811D01*
X142025714Y-86630811D02*
X142025714Y-86030811D01*
X142025714Y-86030811D02*
X142254285Y-86030811D01*
X142254285Y-86030811D02*
X142311428Y-86059382D01*
X142311428Y-86059382D02*
X142339999Y-86087954D01*
X142339999Y-86087954D02*
X142368571Y-86145097D01*
X142368571Y-86145097D02*
X142368571Y-86230811D01*
X142368571Y-86230811D02*
X142339999Y-86287954D01*
X142339999Y-86287954D02*
X142311428Y-86316525D01*
X142311428Y-86316525D02*
X142254285Y-86345097D01*
X142254285Y-86345097D02*
X142025714Y-86345097D01*
X142911428Y-86030811D02*
X142625714Y-86030811D01*
X142625714Y-86030811D02*
X142597142Y-86316525D01*
X142597142Y-86316525D02*
X142625714Y-86287954D01*
X142625714Y-86287954D02*
X142682857Y-86259382D01*
X142682857Y-86259382D02*
X142825714Y-86259382D01*
X142825714Y-86259382D02*
X142882857Y-86287954D01*
X142882857Y-86287954D02*
X142911428Y-86316525D01*
X142911428Y-86316525D02*
X142939999Y-86373668D01*
X142939999Y-86373668D02*
X142939999Y-86516525D01*
X142939999Y-86516525D02*
X142911428Y-86573668D01*
X142911428Y-86573668D02*
X142882857Y-86602240D01*
X142882857Y-86602240D02*
X142825714Y-86630811D01*
X142825714Y-86630811D02*
X142682857Y-86630811D01*
X142682857Y-86630811D02*
X142625714Y-86602240D01*
X142625714Y-86602240D02*
X142597142Y-86573668D01*
D14*
X151070966Y-86121066D02*
X151104300Y-86154399D01*
X151104300Y-86154399D02*
X151137633Y-86254399D01*
X151137633Y-86254399D02*
X151137633Y-86321066D01*
X151137633Y-86321066D02*
X151104300Y-86421066D01*
X151104300Y-86421066D02*
X151037633Y-86487733D01*
X151037633Y-86487733D02*
X150970966Y-86521066D01*
X150970966Y-86521066D02*
X150837633Y-86554399D01*
X150837633Y-86554399D02*
X150737633Y-86554399D01*
X150737633Y-86554399D02*
X150604300Y-86521066D01*
X150604300Y-86521066D02*
X150537633Y-86487733D01*
X150537633Y-86487733D02*
X150470966Y-86421066D01*
X150470966Y-86421066D02*
X150437633Y-86321066D01*
X150437633Y-86321066D02*
X150437633Y-86254399D01*
X150437633Y-86254399D02*
X150470966Y-86154399D01*
X150470966Y-86154399D02*
X150504300Y-86121066D01*
X150437633Y-85521066D02*
X150437633Y-85654399D01*
X150437633Y-85654399D02*
X150470966Y-85721066D01*
X150470966Y-85721066D02*
X150504300Y-85754399D01*
X150504300Y-85754399D02*
X150604300Y-85821066D01*
X150604300Y-85821066D02*
X150737633Y-85854399D01*
X150737633Y-85854399D02*
X151004300Y-85854399D01*
X151004300Y-85854399D02*
X151070966Y-85821066D01*
X151070966Y-85821066D02*
X151104300Y-85787733D01*
X151104300Y-85787733D02*
X151137633Y-85721066D01*
X151137633Y-85721066D02*
X151137633Y-85587733D01*
X151137633Y-85587733D02*
X151104300Y-85521066D01*
X151104300Y-85521066D02*
X151070966Y-85487733D01*
X151070966Y-85487733D02*
X151004300Y-85454399D01*
X151004300Y-85454399D02*
X150837633Y-85454399D01*
X150837633Y-85454399D02*
X150770966Y-85487733D01*
X150770966Y-85487733D02*
X150737633Y-85521066D01*
X150737633Y-85521066D02*
X150704300Y-85587733D01*
X150704300Y-85587733D02*
X150704300Y-85721066D01*
X150704300Y-85721066D02*
X150737633Y-85787733D01*
X150737633Y-85787733D02*
X150770966Y-85821066D01*
X150770966Y-85821066D02*
X150837633Y-85854399D01*
X143901333Y-83526433D02*
X143668000Y-83193100D01*
X143501333Y-83526433D02*
X143501333Y-82826433D01*
X143501333Y-82826433D02*
X143768000Y-82826433D01*
X143768000Y-82826433D02*
X143834667Y-82859766D01*
X143834667Y-82859766D02*
X143868000Y-82893100D01*
X143868000Y-82893100D02*
X143901333Y-82959766D01*
X143901333Y-82959766D02*
X143901333Y-83059766D01*
X143901333Y-83059766D02*
X143868000Y-83126433D01*
X143868000Y-83126433D02*
X143834667Y-83159766D01*
X143834667Y-83159766D02*
X143768000Y-83193100D01*
X143768000Y-83193100D02*
X143501333Y-83193100D01*
X144501333Y-82826433D02*
X144368000Y-82826433D01*
X144368000Y-82826433D02*
X144301333Y-82859766D01*
X144301333Y-82859766D02*
X144268000Y-82893100D01*
X144268000Y-82893100D02*
X144201333Y-82993100D01*
X144201333Y-82993100D02*
X144168000Y-83126433D01*
X144168000Y-83126433D02*
X144168000Y-83393100D01*
X144168000Y-83393100D02*
X144201333Y-83459766D01*
X144201333Y-83459766D02*
X144234667Y-83493100D01*
X144234667Y-83493100D02*
X144301333Y-83526433D01*
X144301333Y-83526433D02*
X144434667Y-83526433D01*
X144434667Y-83526433D02*
X144501333Y-83493100D01*
X144501333Y-83493100D02*
X144534667Y-83459766D01*
X144534667Y-83459766D02*
X144568000Y-83393100D01*
X144568000Y-83393100D02*
X144568000Y-83226433D01*
X144568000Y-83226433D02*
X144534667Y-83159766D01*
X144534667Y-83159766D02*
X144501333Y-83126433D01*
X144501333Y-83126433D02*
X144434667Y-83093100D01*
X144434667Y-83093100D02*
X144301333Y-83093100D01*
X144301333Y-83093100D02*
X144234667Y-83126433D01*
X144234667Y-83126433D02*
X144201333Y-83159766D01*
X144201333Y-83159766D02*
X144168000Y-83226433D01*
D12*
X157434056Y-73838811D02*
X157776914Y-73838811D01*
X157605485Y-74438811D02*
X157605485Y-73838811D01*
X157976914Y-74438811D02*
X157976914Y-73838811D01*
X157976914Y-73838811D02*
X158205485Y-73838811D01*
X158205485Y-73838811D02*
X158262628Y-73867382D01*
X158262628Y-73867382D02*
X158291199Y-73895954D01*
X158291199Y-73895954D02*
X158319771Y-73953097D01*
X158319771Y-73953097D02*
X158319771Y-74038811D01*
X158319771Y-74038811D02*
X158291199Y-74095954D01*
X158291199Y-74095954D02*
X158262628Y-74124525D01*
X158262628Y-74124525D02*
X158205485Y-74153097D01*
X158205485Y-74153097D02*
X157976914Y-74153097D01*
X158834057Y-74038811D02*
X158834057Y-74438811D01*
X158691199Y-73810240D02*
X158548342Y-74238811D01*
X158548342Y-74238811D02*
X158919771Y-74238811D01*
X155440114Y-73814840D02*
X154925828Y-74586268D01*
X155640114Y-74443411D02*
X155640114Y-73843411D01*
X155640114Y-73843411D02*
X155782971Y-73843411D01*
X155782971Y-73843411D02*
X155868685Y-73871982D01*
X155868685Y-73871982D02*
X155925828Y-73929125D01*
X155925828Y-73929125D02*
X155954399Y-73986268D01*
X155954399Y-73986268D02*
X155982971Y-74100554D01*
X155982971Y-74100554D02*
X155982971Y-74186268D01*
X155982971Y-74186268D02*
X155954399Y-74300554D01*
X155954399Y-74300554D02*
X155925828Y-74357697D01*
X155925828Y-74357697D02*
X155868685Y-74414840D01*
X155868685Y-74414840D02*
X155782971Y-74443411D01*
X155782971Y-74443411D02*
X155640114Y-74443411D01*
X156240114Y-74214840D02*
X156697257Y-74214840D01*
X156468685Y-74443411D02*
X156468685Y-73986268D01*
D14*
X145333333Y-97454819D02*
X144857143Y-97454819D01*
X144857143Y-97454819D02*
X144857143Y-96454819D01*
X146190476Y-97454819D02*
X145619048Y-97454819D01*
X145904762Y-97454819D02*
X145904762Y-96454819D01*
X145904762Y-96454819D02*
X145809524Y-96597676D01*
X145809524Y-96597676D02*
X145714286Y-96692914D01*
X145714286Y-96692914D02*
X145619048Y-96740533D01*
X145970666Y-75248419D02*
X145970666Y-75962704D01*
X145970666Y-75962704D02*
X145923047Y-76105561D01*
X145923047Y-76105561D02*
X145827809Y-76200800D01*
X145827809Y-76200800D02*
X145684952Y-76248419D01*
X145684952Y-76248419D02*
X145589714Y-76248419D01*
X146399238Y-75343657D02*
X146446857Y-75296038D01*
X146446857Y-75296038D02*
X146542095Y-75248419D01*
X146542095Y-75248419D02*
X146780190Y-75248419D01*
X146780190Y-75248419D02*
X146875428Y-75296038D01*
X146875428Y-75296038D02*
X146923047Y-75343657D01*
X146923047Y-75343657D02*
X146970666Y-75438895D01*
X146970666Y-75438895D02*
X146970666Y-75534133D01*
X146970666Y-75534133D02*
X146923047Y-75676990D01*
X146923047Y-75676990D02*
X146351619Y-76248419D01*
X146351619Y-76248419D02*
X146970666Y-76248419D01*
X150541175Y-83393833D02*
X150494035Y-83393833D01*
X150494035Y-83393833D02*
X150399754Y-83346692D01*
X150399754Y-83346692D02*
X150352613Y-83299552D01*
X150352613Y-83299552D02*
X150305473Y-83205271D01*
X150305473Y-83205271D02*
X150305473Y-83110990D01*
X150305473Y-83110990D02*
X150329043Y-83040279D01*
X150329043Y-83040279D02*
X150399754Y-82922428D01*
X150399754Y-82922428D02*
X150470464Y-82851718D01*
X150470464Y-82851718D02*
X150588316Y-82781007D01*
X150588316Y-82781007D02*
X150659026Y-82757437D01*
X150659026Y-82757437D02*
X150753307Y-82757437D01*
X150753307Y-82757437D02*
X150847588Y-82804577D01*
X150847588Y-82804577D02*
X150894728Y-82851718D01*
X150894728Y-82851718D02*
X150941869Y-82945999D01*
X150941869Y-82945999D02*
X150941869Y-82993139D01*
X150965439Y-83912378D02*
X150682596Y-83629535D01*
X150824018Y-83770956D02*
X151318993Y-83275982D01*
X151318993Y-83275982D02*
X151201141Y-83299552D01*
X151201141Y-83299552D02*
X151106861Y-83299552D01*
X151106861Y-83299552D02*
X151036150Y-83275982D01*
D15*
%TO.C,TP8*%
X141158000Y-88036400D02*
G75*
G02*
X139258000Y-88036400I-950000J0D01*
G01*
X139258000Y-88036400D02*
G75*
G02*
X141158000Y-88036400I950000J0D01*
G01*
%TO.C,C2*%
X151580349Y-93373598D02*
X151787202Y-93580451D01*
X152301598Y-92652349D02*
X152508451Y-92859202D01*
%TO.C,C3*%
X151817400Y-96766748D02*
X151817400Y-97289252D01*
X153287400Y-96766748D02*
X153287400Y-97289252D01*
%TO.C,TP3*%
X154162800Y-76962000D02*
G75*
G02*
X152262800Y-76962000I-950000J0D01*
G01*
X152262800Y-76962000D02*
G75*
G02*
X154162800Y-76962000I950000J0D01*
G01*
%TO.C,R8*%
X147583220Y-86803346D02*
X147943454Y-87163580D01*
X148322146Y-86064420D02*
X148682380Y-86424654D01*
%TO.C,R7*%
X141588258Y-84440500D02*
X141113742Y-84440500D01*
X141588258Y-85485500D02*
X141113742Y-85485500D01*
%TO.C,TP7*%
X142428000Y-82804000D02*
G75*
G02*
X140528000Y-82804000I-950000J0D01*
G01*
X140528000Y-82804000D02*
G75*
G02*
X142428000Y-82804000I950000J0D01*
G01*
D16*
%TO.C,U1*%
X144823599Y-88273600D02*
X144823599Y-88915659D01*
X144823599Y-90984339D02*
X144823599Y-91626400D01*
X144823599Y-91626400D02*
X145065658Y-91626400D01*
X145065658Y-88273600D02*
X144823599Y-88273600D01*
X147934340Y-91626400D02*
X148176399Y-91626400D01*
X148176399Y-88273600D02*
X147934340Y-88273600D01*
X148176399Y-88715659D02*
X148176399Y-88273600D01*
X148176399Y-91626400D02*
X148176399Y-91184341D01*
D15*
%TO.C,TP2*%
X156042400Y-91846400D02*
G75*
G02*
X154142400Y-91846400I-950000J0D01*
G01*
X154142400Y-91846400D02*
G75*
G02*
X156042400Y-91846400I950000J0D01*
G01*
%TO.C,C7*%
X145159000Y-84746267D02*
X145159000Y-84453733D01*
X146179000Y-84746267D02*
X146179000Y-84453733D01*
%TO.C,J4*%
X158186600Y-91925000D02*
X158931600Y-91925000D01*
X158186600Y-92660000D02*
X158186600Y-91925000D01*
X158186600Y-93395000D02*
X158186600Y-94270000D01*
X158186600Y-93395000D02*
X158246035Y-93395000D01*
X158186600Y-94270000D02*
X158521570Y-94270000D01*
X159341630Y-94270000D02*
X159676600Y-94270000D01*
X159617165Y-93395000D02*
X159676600Y-93395000D01*
X159676600Y-93395000D02*
X159676600Y-94270000D01*
%TO.C,TP6*%
X140523000Y-96266000D02*
G75*
G02*
X138623000Y-96266000I-950000J0D01*
G01*
X138623000Y-96266000D02*
G75*
G02*
X140523000Y-96266000I950000J0D01*
G01*
%TO.C,N1*%
X158186600Y-95255000D02*
X158931600Y-95255000D01*
X158186600Y-95990000D02*
X158186600Y-95255000D01*
X158186600Y-96725000D02*
X158186600Y-97600000D01*
X158186600Y-96725000D02*
X158246035Y-96725000D01*
X158186600Y-97600000D02*
X158521570Y-97600000D01*
X159341630Y-97600000D02*
X159676600Y-97600000D01*
X159617165Y-96725000D02*
X159676600Y-96725000D01*
X159676600Y-96725000D02*
X159676600Y-97600000D01*
%TO.C,J1*%
X158186600Y-88595000D02*
X158931600Y-88595000D01*
X158186600Y-89330000D02*
X158186600Y-88595000D01*
X158186600Y-90065000D02*
X158186600Y-90940000D01*
X158186600Y-90065000D02*
X158246035Y-90065000D01*
X158186600Y-90940000D02*
X158521570Y-90940000D01*
X159341630Y-90940000D02*
X159676600Y-90940000D01*
X159617165Y-90065000D02*
X159676600Y-90065000D01*
X159676600Y-90065000D02*
X159676600Y-90940000D01*
%TO.C,R5*%
X151437743Y-90053900D02*
X151912259Y-90053900D01*
X151437743Y-91098900D02*
X151912259Y-91098900D01*
%TO.C,R4*%
X151437743Y-88477500D02*
X151912259Y-88477500D01*
X151437743Y-89522500D02*
X151912259Y-89522500D01*
%TO.C,J3*%
X158186600Y-85265000D02*
X158931600Y-85265000D01*
X158186600Y-86000000D02*
X158186600Y-85265000D01*
X158186600Y-86735000D02*
X158186600Y-87610000D01*
X158186600Y-86735000D02*
X158246035Y-86735000D01*
X158186600Y-87610000D02*
X158521570Y-87610000D01*
X159341630Y-87610000D02*
X159676600Y-87610000D01*
X159617165Y-86735000D02*
X159676600Y-86735000D01*
X159676600Y-86735000D02*
X159676600Y-87610000D01*
%TO.C,C5*%
X139362949Y-91316198D02*
X139569802Y-91523051D01*
X140084198Y-90594949D02*
X140291051Y-90801802D01*
%TO.C,R2*%
X154284000Y-95030936D02*
X154284000Y-96485064D01*
X156104000Y-95030936D02*
X156104000Y-96485064D01*
%TO.C,TP9*%
X154162800Y-79756000D02*
G75*
G02*
X152262800Y-79756000I-950000J0D01*
G01*
X152262800Y-79756000D02*
G75*
G02*
X154162800Y-79756000I950000J0D01*
G01*
%TO.C,TP1*%
X154162800Y-82296000D02*
G75*
G02*
X152262800Y-82296000I-950000J0D01*
G01*
X152262800Y-82296000D02*
G75*
G02*
X154162800Y-82296000I950000J0D01*
G01*
%TO.C,C4*%
X142260610Y-91890457D02*
X141891143Y-91520990D01*
X143300057Y-90851010D02*
X142930590Y-90481543D01*
%TO.C,TP5*%
X143799600Y-87960200D02*
G75*
G02*
X141899600Y-87960200I-950000J0D01*
G01*
X141899600Y-87960200D02*
G75*
G02*
X143799600Y-87960200I950000J0D01*
G01*
%TO.C,C6*%
X151766600Y-86265652D02*
X151766600Y-85743148D01*
X153236600Y-86265652D02*
X153236600Y-85743148D01*
%TO.C,R6*%
X143495500Y-85454258D02*
X143495500Y-84979742D01*
X144540500Y-85454258D02*
X144540500Y-84979742D01*
%TO.C,TP4*%
X154162800Y-74168000D02*
G75*
G02*
X152262800Y-74168000I-950000J0D01*
G01*
X152262800Y-74168000D02*
G75*
G02*
X154162800Y-74168000I950000J0D01*
G01*
D16*
%TO.C,L1*%
X141753500Y-93507500D02*
X141753500Y-95079760D01*
X141753500Y-98920240D02*
X141753500Y-100492500D01*
X141753500Y-100492500D02*
X149246500Y-100492500D01*
X149246500Y-93507500D02*
X141753500Y-93507500D01*
X149246500Y-95079760D02*
X149246500Y-93507500D01*
X149246500Y-100492500D02*
X149246500Y-98920240D01*
X150465700Y-97000000D02*
G75*
G02*
X150313300Y-97000000I-76200J0D01*
G01*
X150313300Y-97000000D02*
G75*
G02*
X150465700Y-97000000I76200J0D01*
G01*
D17*
%TO.C,J2*%
X141834000Y-73219000D02*
X141834000Y-74499000D01*
X141834000Y-78469000D02*
X141834000Y-77219000D01*
X150774000Y-74499000D02*
X150774000Y-73219000D01*
X150774000Y-78469000D02*
X150774000Y-77219000D01*
X149654000Y-81819000D02*
G75*
G02*
X149454000Y-81819000I-100000J0D01*
G01*
X149454000Y-81819000D02*
G75*
G02*
X149654000Y-81819000I100000J0D01*
G01*
D15*
%TO.C,C1*%
X148535949Y-83757198D02*
X148742802Y-83964051D01*
X149257198Y-83035949D02*
X149464051Y-83242802D01*
%TD*%
M02*
