%TF.GenerationSoftware,KiCad,Pcbnew,9.0.6*%
%TF.CreationDate,2025-12-26T02:16:26-08:00*%
%TF.ProjectId,NVG Monocular,4e564720-4d6f-46e6-9f63-756c61722e6b,rev?*%
%TF.SameCoordinates,Original*%
%TF.FileFunction,Soldermask,Top*%
%TF.FilePolarity,Negative*%
%FSLAX46Y46*%
G04 Gerber Fmt 4.6, Leading zero omitted, Abs format (unit mm)*
G04 Created by KiCad (PCBNEW 9.0.6) date 2025-12-26 02:16:26*
%MOMM*%
%LPD*%
G01*
G04 APERTURE LIST*
G04 Aperture macros list*
%AMRoundRect*
0 Rectangle with rounded corners*
0 $1 Rounding radius*
0 $2 $3 $4 $5 $6 $7 $8 $9 X,Y pos of 4 corners*
0 Add a 4 corners polygon primitive as box body*
4,1,4,$2,$3,$4,$5,$6,$7,$8,$9,$2,$3,0*
0 Add four circle primitives for the rounded corners*
1,1,$1+$1,$2,$3*
1,1,$1+$1,$4,$5*
1,1,$1+$1,$6,$7*
1,1,$1+$1,$8,$9*
0 Add four rect primitives between the rounded corners*
20,1,$1+$1,$2,$3,$4,$5,0*
20,1,$1+$1,$4,$5,$6,$7,0*
20,1,$1+$1,$6,$7,$8,$9,0*
20,1,$1+$1,$8,$9,$2,$3,0*%
G04 Aperture macros list end*
%ADD10C,0.010000*%
%ADD11C,1.500000*%
%ADD12RoundRect,0.237500X-0.380070X0.044194X0.044194X-0.380070X0.380070X-0.044194X-0.044194X0.380070X0*%
%ADD13RoundRect,0.250000X-0.475000X0.337500X-0.475000X-0.337500X0.475000X-0.337500X0.475000X0.337500X0*%
%ADD14RoundRect,0.237500X-0.344715X0.008839X0.008839X-0.344715X0.344715X-0.008839X-0.008839X0.344715X0*%
%ADD15RoundRect,0.200000X0.200000X0.275000X-0.200000X0.275000X-0.200000X-0.275000X0.200000X-0.275000X0*%
%ADD16R,1.498600X0.203200*%
%ADD17R,0.203200X0.711200*%
%ADD18R,0.711200X0.203200*%
%ADD19RoundRect,0.237500X0.237500X-0.300000X0.237500X0.300000X-0.237500X0.300000X-0.237500X-0.300000X0*%
%ADD20R,0.850000X0.850000*%
%ADD21C,0.850000*%
%ADD22RoundRect,0.200000X-0.200000X-0.275000X0.200000X-0.275000X0.200000X0.275000X-0.200000X0.275000X0*%
%ADD23RoundRect,0.250000X-0.625000X0.400000X-0.625000X-0.400000X0.625000X-0.400000X0.625000X0.400000X0*%
%ADD24RoundRect,0.250000X0.574524X0.097227X0.097227X0.574524X-0.574524X-0.097227X-0.097227X-0.574524X0*%
%ADD25RoundRect,0.250000X0.475000X-0.337500X0.475000X0.337500X-0.475000X0.337500X-0.475000X-0.337500X0*%
%ADD26RoundRect,0.200000X0.275000X-0.200000X0.275000X0.200000X-0.275000X0.200000X-0.275000X-0.200000X0*%
%ADD27R,2.235200X3.175000*%
%ADD28C,0.650000*%
%ADD29O,1.204000X2.304000*%
%ADD30O,1.204000X2.004000*%
G04 APERTURE END LIST*
D10*
%TO.C,J2*%
X143454000Y-81199000D02*
X142754000Y-81199000D01*
X142754000Y-79949000D01*
X143454000Y-79949000D01*
X143454000Y-81199000D01*
G36*
X143454000Y-81199000D02*
G01*
X142754000Y-81199000D01*
X142754000Y-79949000D01*
X143454000Y-79949000D01*
X143454000Y-81199000D01*
G37*
X144254000Y-81199000D02*
X143554000Y-81199000D01*
X143554000Y-79949000D01*
X144254000Y-79949000D01*
X144254000Y-81199000D01*
G36*
X144254000Y-81199000D02*
G01*
X143554000Y-81199000D01*
X143554000Y-79949000D01*
X144254000Y-79949000D01*
X144254000Y-81199000D01*
G37*
X144754000Y-81199000D02*
X144354000Y-81199000D01*
X144354000Y-79949000D01*
X144754000Y-79949000D01*
X144754000Y-81199000D01*
G36*
X144754000Y-81199000D02*
G01*
X144354000Y-81199000D01*
X144354000Y-79949000D01*
X144754000Y-79949000D01*
X144754000Y-81199000D01*
G37*
X145254000Y-81199000D02*
X144854000Y-81199000D01*
X144854000Y-79949000D01*
X145254000Y-79949000D01*
X145254000Y-81199000D01*
G36*
X145254000Y-81199000D02*
G01*
X144854000Y-81199000D01*
X144854000Y-79949000D01*
X145254000Y-79949000D01*
X145254000Y-81199000D01*
G37*
X145754000Y-81199000D02*
X145354000Y-81199000D01*
X145354000Y-79949000D01*
X145754000Y-79949000D01*
X145754000Y-81199000D01*
G36*
X145754000Y-81199000D02*
G01*
X145354000Y-81199000D01*
X145354000Y-79949000D01*
X145754000Y-79949000D01*
X145754000Y-81199000D01*
G37*
X146254000Y-81199000D02*
X145854000Y-81199000D01*
X145854000Y-79949000D01*
X146254000Y-79949000D01*
X146254000Y-81199000D01*
G36*
X146254000Y-81199000D02*
G01*
X145854000Y-81199000D01*
X145854000Y-79949000D01*
X146254000Y-79949000D01*
X146254000Y-81199000D01*
G37*
X146754000Y-81199000D02*
X146354000Y-81199000D01*
X146354000Y-79949000D01*
X146754000Y-79949000D01*
X146754000Y-81199000D01*
G36*
X146754000Y-81199000D02*
G01*
X146354000Y-81199000D01*
X146354000Y-79949000D01*
X146754000Y-79949000D01*
X146754000Y-81199000D01*
G37*
X147254000Y-81199000D02*
X146854000Y-81199000D01*
X146854000Y-79949000D01*
X147254000Y-79949000D01*
X147254000Y-81199000D01*
G36*
X147254000Y-81199000D02*
G01*
X146854000Y-81199000D01*
X146854000Y-79949000D01*
X147254000Y-79949000D01*
X147254000Y-81199000D01*
G37*
X147754000Y-81199000D02*
X147354000Y-81199000D01*
X147354000Y-79949000D01*
X147754000Y-79949000D01*
X147754000Y-81199000D01*
G36*
X147754000Y-81199000D02*
G01*
X147354000Y-81199000D01*
X147354000Y-79949000D01*
X147754000Y-79949000D01*
X147754000Y-81199000D01*
G37*
X148254000Y-81199000D02*
X147854000Y-81199000D01*
X147854000Y-79949000D01*
X148254000Y-79949000D01*
X148254000Y-81199000D01*
G36*
X148254000Y-81199000D02*
G01*
X147854000Y-81199000D01*
X147854000Y-79949000D01*
X148254000Y-79949000D01*
X148254000Y-81199000D01*
G37*
X149054000Y-81199000D02*
X148354000Y-81199000D01*
X148354000Y-79949000D01*
X149054000Y-79949000D01*
X149054000Y-81199000D01*
G36*
X149054000Y-81199000D02*
G01*
X148354000Y-81199000D01*
X148354000Y-79949000D01*
X149054000Y-79949000D01*
X149054000Y-81199000D01*
G37*
X149854000Y-81199000D02*
X149154000Y-81199000D01*
X149154000Y-79949000D01*
X149854000Y-79949000D01*
X149854000Y-81199000D01*
G36*
X149854000Y-81199000D02*
G01*
X149154000Y-81199000D01*
X149154000Y-79949000D01*
X149854000Y-79949000D01*
X149854000Y-81199000D01*
G37*
%TD*%
D11*
%TO.C,TP8*%
X140208000Y-88036400D03*
%TD*%
D12*
%TO.C,C2*%
X151434520Y-92506520D03*
X152654280Y-93726280D03*
%TD*%
D13*
%TO.C,C3*%
X152552400Y-95990500D03*
X152552400Y-98065500D03*
%TD*%
D11*
%TO.C,TP3*%
X153212800Y-76962000D03*
%TD*%
D14*
%TO.C,R8*%
X147487565Y-85968765D03*
X148778035Y-87259235D03*
%TD*%
D15*
%TO.C,R7*%
X142176000Y-84963000D03*
X140526000Y-84963000D03*
%TD*%
D11*
%TO.C,TP7*%
X141478000Y-82804000D03*
%TD*%
D16*
%TO.C,U1*%
X145449999Y-89349999D03*
X145449999Y-89750001D03*
X145449999Y-90150000D03*
X145449999Y-90549999D03*
D17*
X145499998Y-91400000D03*
X145900000Y-91400000D03*
X146299999Y-91400000D03*
X146699999Y-91400000D03*
X147099998Y-91400000D03*
X147500000Y-91400000D03*
D18*
X147949999Y-90750001D03*
X147949999Y-90349999D03*
X147949999Y-89950000D03*
X147949999Y-89550001D03*
X147949999Y-89149999D03*
D17*
X147500000Y-88500000D03*
X147099998Y-88500000D03*
X146699999Y-88500000D03*
X146299999Y-88500000D03*
X145900000Y-88500000D03*
X145499998Y-88500000D03*
%TD*%
D11*
%TO.C,TP2*%
X155092400Y-91846400D03*
%TD*%
D19*
%TO.C,C7*%
X145669000Y-85462500D03*
X145669000Y-83737500D03*
%TD*%
D20*
%TO.C,J4*%
X158931600Y-92660000D03*
D21*
X158931600Y-93660000D03*
%TD*%
D11*
%TO.C,TP6*%
X139573000Y-96266000D03*
%TD*%
D20*
%TO.C,N1*%
X158931600Y-95990000D03*
D21*
X158931600Y-96990000D03*
%TD*%
D20*
%TO.C,J1*%
X158931600Y-89330000D03*
D21*
X158931600Y-90330000D03*
%TD*%
D22*
%TO.C,R5*%
X150850001Y-90576400D03*
X152500001Y-90576400D03*
%TD*%
%TO.C,R4*%
X150850001Y-89000000D03*
X152500001Y-89000000D03*
%TD*%
D20*
%TO.C,J3*%
X158931600Y-86000000D03*
D21*
X158931600Y-87000000D03*
%TD*%
D12*
%TO.C,C5*%
X139217120Y-90449120D03*
X140436880Y-91668880D03*
%TD*%
D23*
%TO.C,R2*%
X155194000Y-94208000D03*
X155194000Y-97308000D03*
%TD*%
D11*
%TO.C,TP9*%
X153212800Y-79756000D03*
%TD*%
%TO.C,TP1*%
X153212800Y-82296000D03*
%TD*%
D24*
%TO.C,C4*%
X143329223Y-91919623D03*
X141861977Y-90452377D03*
%TD*%
D11*
%TO.C,TP5*%
X142849600Y-87960200D03*
%TD*%
D25*
%TO.C,C6*%
X152501600Y-87041900D03*
X152501600Y-84966900D03*
%TD*%
D26*
%TO.C,R6*%
X144018000Y-86042000D03*
X144018000Y-84392000D03*
%TD*%
D11*
%TO.C,TP4*%
X153212800Y-74168000D03*
%TD*%
D27*
%TO.C,L1*%
X148154300Y-97000000D03*
X142845700Y-97000000D03*
%TD*%
D28*
%TO.C,J2*%
X149194000Y-79499000D03*
X143414000Y-79499000D03*
D29*
X150624000Y-79999000D03*
X141984000Y-79999000D03*
D30*
X150624000Y-75819000D03*
X141984000Y-75819000D03*
%TD*%
D12*
%TO.C,C1*%
X148390120Y-82890120D03*
X149609880Y-84109880D03*
%TD*%
M02*
