%TF.GenerationSoftware,KiCad,Pcbnew,9.0.6*%
%TF.CreationDate,2025-12-26T02:16:26-08:00*%
%TF.ProjectId,NVG Monocular,4e564720-4d6f-46e6-9f63-756c61722e6b,rev?*%
%TF.SameCoordinates,Original*%
%TF.FileFunction,Copper,L2,Bot*%
%TF.FilePolarity,Positive*%
%FSLAX46Y46*%
G04 Gerber Fmt 4.6, Leading zero omitted, Abs format (unit mm)*
G04 Created by KiCad (PCBNEW 9.0.6) date 2025-12-26 02:16:26*
%MOMM*%
%LPD*%
G01*
G04 APERTURE LIST*
G04 Aperture macros list*
%AMRoundRect*
0 Rectangle with rounded corners*
0 $1 Rounding radius*
0 $2 $3 $4 $5 $6 $7 $8 $9 X,Y pos of 4 corners*
0 Add a 4 corners polygon primitive as box body*
4,1,4,$2,$3,$4,$5,$6,$7,$8,$9,$2,$3,0*
0 Add four circle primitives for the rounded corners*
1,1,$1+$1,$2,$3*
1,1,$1+$1,$4,$5*
1,1,$1+$1,$6,$7*
1,1,$1+$1,$8,$9*
0 Add four rect primitives between the rounded corners*
20,1,$1+$1,$2,$3,$4,$5,0*
20,1,$1+$1,$4,$5,$6,$7,0*
20,1,$1+$1,$6,$7,$8,$9,0*
20,1,$1+$1,$8,$9,$2,$3,0*%
G04 Aperture macros list end*
%TA.AperFunction,ComponentPad*%
%ADD10R,0.850000X0.850000*%
%TD*%
%TA.AperFunction,ComponentPad*%
%ADD11C,0.850000*%
%TD*%
%TA.AperFunction,ComponentPad*%
%ADD12O,1.000000X2.100000*%
%TD*%
%TA.AperFunction,ComponentPad*%
%ADD13O,1.000000X1.800000*%
%TD*%
%TA.AperFunction,SMDPad,CuDef*%
%ADD14RoundRect,0.200000X0.200000X0.275000X-0.200000X0.275000X-0.200000X-0.275000X0.200000X-0.275000X0*%
%TD*%
%TA.AperFunction,ViaPad*%
%ADD15C,0.600000*%
%TD*%
%TA.AperFunction,ViaPad*%
%ADD16C,0.533400*%
%TD*%
%TA.AperFunction,ViaPad*%
%ADD17C,0.635000*%
%TD*%
%TA.AperFunction,Conductor*%
%ADD18C,0.177800*%
%TD*%
%TA.AperFunction,Conductor*%
%ADD19C,0.381000*%
%TD*%
%TA.AperFunction,Conductor*%
%ADD20C,0.200000*%
%TD*%
G04 APERTURE END LIST*
D10*
%TO.P,J4,1,Pin_1*%
%TO.N,/BATT+*%
X158931600Y-92660000D03*
D11*
%TO.P,J4,2,Pin_2*%
%TO.N,GND*%
X158931600Y-93660000D03*
%TD*%
D10*
%TO.P,N1,1,5V*%
%TO.N,/6_SYS*%
X158931600Y-95990000D03*
D11*
%TO.P,N1,2,GND*%
%TO.N,GND*%
X158931600Y-96990000D03*
%TD*%
D10*
%TO.P,J1,1,Pin_1*%
%TO.N,/SDA*%
X158931600Y-89330000D03*
D11*
%TO.P,J1,2,Pin_2*%
%TO.N,/SCL*%
X158931600Y-90330000D03*
%TD*%
D10*
%TO.P,J3,1,Pin_1*%
%TO.N,Net-(J3-Pin_1)*%
X158931600Y-86000000D03*
D11*
%TO.P,J3,2,Pin_2*%
%TO.N,Net-(J3-Pin_2)*%
X158931600Y-87000000D03*
%TD*%
D12*
%TO.P,J2,SH1,SHELL_GND*%
%TO.N,GND*%
X150624000Y-79999000D03*
%TO.P,J2,SH2,SHELL_GND__1*%
X141984000Y-79999000D03*
D13*
%TO.P,J2,SH3,SHELL_GND__2*%
X150624000Y-75819000D03*
%TO.P,J2,SH4,SHELL_GND__3*%
X141984000Y-75819000D03*
%TD*%
D14*
%TO.P,R3,1*%
%TO.N,Net-(J2-CC2)*%
X145097000Y-80645000D03*
%TO.P,R3,2*%
%TO.N,GND*%
X143447000Y-80645000D03*
%TD*%
%TO.P,R1,1*%
%TO.N,GND*%
X149161000Y-80645000D03*
%TO.P,R1,2*%
%TO.N,Net-(J2-CC1)*%
X147511000Y-80645000D03*
%TD*%
D15*
%TO.N,GND*%
X158000000Y-100500000D03*
X157000000Y-100500000D03*
X156000000Y-100500000D03*
X155200000Y-88200000D03*
X139600000Y-79300000D03*
X153500000Y-94700000D03*
X159900000Y-77500000D03*
X139600000Y-75300000D03*
X139600000Y-80300000D03*
X139600000Y-77300000D03*
X158300000Y-83900000D03*
X159900000Y-79500000D03*
X157300000Y-83900000D03*
X139600000Y-78300000D03*
X154200000Y-88200000D03*
X155000000Y-100500000D03*
X159900000Y-81500000D03*
X152000000Y-100500000D03*
X155300000Y-83900000D03*
X156200000Y-88200000D03*
X143000000Y-89600000D03*
X159900000Y-80500000D03*
X154000000Y-100500000D03*
X159900000Y-78500000D03*
X143300000Y-82100000D03*
X159900000Y-75500000D03*
X153000000Y-100500000D03*
X159900000Y-76500000D03*
X156300000Y-83900000D03*
X139600000Y-81300000D03*
X139600000Y-76300000D03*
D16*
%TO.N,/VCC*%
X142875000Y-83566000D03*
X145669000Y-86604500D03*
%TO.N,/8_IN*%
X146558000Y-92456000D03*
X148463000Y-84582000D03*
D17*
%TO.N,/6_SYS*%
X149913901Y-92402099D03*
D16*
X145897399Y-92989199D03*
D15*
%TO.N,/INT*%
X149225000Y-89789000D03*
X139500000Y-93500000D03*
%TO.N,Net-(J2-CC2)*%
X144551400Y-78994000D03*
%TO.N,Net-(J2-CC1)*%
X147548600Y-78994000D03*
%TD*%
D18*
%TO.N,/VCC*%
X142875000Y-85080500D02*
X142875000Y-83566000D01*
X145669000Y-86604500D02*
X144399000Y-86604500D01*
X144399000Y-86604500D02*
X142875000Y-85080500D01*
D19*
%TO.N,/8_IN*%
X147794000Y-92456000D02*
X146558000Y-92456000D01*
X148463000Y-84582000D02*
X150250000Y-86369000D01*
X150250000Y-90000000D02*
X147794000Y-92456000D01*
X150250000Y-86369000D02*
X150250000Y-90000000D01*
D20*
%TO.N,/6_SYS*%
X146158200Y-93250000D02*
X145897399Y-92989199D01*
X148405600Y-93250000D02*
X146158200Y-93250000D01*
X149253501Y-92402099D02*
X148405600Y-93250000D01*
X149913901Y-92402099D02*
X149253501Y-92402099D01*
D18*
%TO.N,/INT*%
X140000000Y-93000000D02*
X144490000Y-93000000D01*
X144490000Y-93000000D02*
X147701000Y-89789000D01*
X147701000Y-89789000D02*
X149225000Y-89789000D01*
X139500000Y-93500000D02*
X140000000Y-93000000D01*
D20*
%TO.N,Net-(J2-CC2)*%
X144551400Y-80099400D02*
X145097000Y-80645000D01*
X144551400Y-78994000D02*
X144551400Y-80099400D01*
%TO.N,Net-(J2-CC1)*%
X147548600Y-78994000D02*
X147548600Y-80607400D01*
X147548600Y-80607400D02*
X147511000Y-80645000D01*
%TD*%
%TA.AperFunction,Conductor*%
%TO.N,GND*%
G36*
X158503036Y-73233626D02*
G01*
X158793324Y-73251185D01*
X158808188Y-73252990D01*
X159090552Y-73304735D01*
X159105089Y-73308318D01*
X159379146Y-73393718D01*
X159393137Y-73399023D01*
X159654926Y-73516844D01*
X159668172Y-73523797D01*
X159913844Y-73672311D01*
X159926155Y-73680809D01*
X160152133Y-73857851D01*
X160163341Y-73867781D01*
X160366318Y-74070758D01*
X160376248Y-74081966D01*
X160553286Y-74307938D01*
X160561790Y-74320259D01*
X160710299Y-74565921D01*
X160717258Y-74579180D01*
X160835074Y-74840957D01*
X160840383Y-74854958D01*
X160925780Y-75129009D01*
X160929364Y-75143547D01*
X160981109Y-75425911D01*
X160982914Y-75440776D01*
X161000474Y-75731063D01*
X161000700Y-75738550D01*
X161000700Y-98599049D01*
X161000474Y-98606536D01*
X160982914Y-98896823D01*
X160981109Y-98911688D01*
X160929364Y-99194052D01*
X160925780Y-99208590D01*
X160840383Y-99482641D01*
X160835074Y-99496642D01*
X160717258Y-99758419D01*
X160710299Y-99771678D01*
X160561792Y-100017338D01*
X160553286Y-100029661D01*
X160376248Y-100255633D01*
X160366318Y-100266841D01*
X160163341Y-100469818D01*
X160152133Y-100479748D01*
X159926161Y-100656786D01*
X159913838Y-100665292D01*
X159668178Y-100813799D01*
X159654919Y-100820758D01*
X159393142Y-100938574D01*
X159379141Y-100943883D01*
X159105090Y-101029280D01*
X159090552Y-101032864D01*
X158808188Y-101084609D01*
X158793323Y-101086414D01*
X158503036Y-101103974D01*
X158495549Y-101104200D01*
X140757851Y-101104200D01*
X140750364Y-101103974D01*
X140460076Y-101086414D01*
X140445211Y-101084609D01*
X140162847Y-101032864D01*
X140148309Y-101029280D01*
X139874258Y-100943883D01*
X139860257Y-100938574D01*
X139598480Y-100820758D01*
X139585221Y-100813799D01*
X139339561Y-100665292D01*
X139327238Y-100656786D01*
X139101266Y-100479748D01*
X139090058Y-100469818D01*
X138887081Y-100266841D01*
X138877151Y-100255633D01*
X138700113Y-100029661D01*
X138691611Y-100017344D01*
X138543097Y-99771672D01*
X138536144Y-99758426D01*
X138418323Y-99496637D01*
X138413016Y-99482641D01*
X138327619Y-99208590D01*
X138324035Y-99194052D01*
X138272290Y-98911688D01*
X138270485Y-98896823D01*
X138252926Y-98606536D01*
X138252700Y-98599049D01*
X138252700Y-97798500D01*
X158476650Y-97798500D01*
X158493449Y-97809725D01*
X158493455Y-97809728D01*
X158661782Y-97879451D01*
X158661794Y-97879454D01*
X158840490Y-97914999D01*
X158840494Y-97915000D01*
X159022706Y-97915000D01*
X159022709Y-97914999D01*
X159201405Y-97879454D01*
X159201413Y-97879452D01*
X159369751Y-97809724D01*
X159369754Y-97809723D01*
X159386547Y-97798500D01*
X159386548Y-97798500D01*
X158931601Y-97343553D01*
X158931600Y-97343553D01*
X158476650Y-97798500D01*
X138252700Y-97798500D01*
X138252700Y-95517135D01*
X158006100Y-95517135D01*
X158006100Y-96462870D01*
X158006101Y-96462876D01*
X158012508Y-96522483D01*
X158048302Y-96618451D01*
X158053286Y-96688143D01*
X158046685Y-96709227D01*
X158042149Y-96720180D01*
X158042145Y-96720190D01*
X158006600Y-96898891D01*
X158006600Y-97081109D01*
X158042145Y-97259805D01*
X158042148Y-97259817D01*
X158111871Y-97428145D01*
X158123098Y-97444947D01*
X158616227Y-96951818D01*
X158643154Y-96937114D01*
X158668973Y-96920522D01*
X158675173Y-96919630D01*
X158677550Y-96918333D01*
X158691299Y-96916854D01*
X158681600Y-96940272D01*
X158681600Y-97039728D01*
X158719660Y-97131614D01*
X158789986Y-97201940D01*
X158881872Y-97240000D01*
X158981328Y-97240000D01*
X159073214Y-97201940D01*
X159143540Y-97131614D01*
X159181600Y-97039728D01*
X159181600Y-96940272D01*
X159173007Y-96919526D01*
X159226330Y-96935184D01*
X159246972Y-96951818D01*
X159740100Y-97444948D01*
X159751324Y-97428152D01*
X159751324Y-97428151D01*
X159821052Y-97259813D01*
X159821054Y-97259805D01*
X159856599Y-97081109D01*
X159856600Y-97081106D01*
X159856600Y-96898894D01*
X159856599Y-96898890D01*
X159821054Y-96720194D01*
X159821051Y-96720182D01*
X159816517Y-96709235D01*
X159809050Y-96639766D01*
X159814897Y-96618452D01*
X159850691Y-96522482D01*
X159857100Y-96462873D01*
X159857099Y-95517128D01*
X159850691Y-95457517D01*
X159800396Y-95322669D01*
X159800395Y-95322668D01*
X159800393Y-95322664D01*
X159714147Y-95207455D01*
X159714144Y-95207452D01*
X159598935Y-95121206D01*
X159598928Y-95121202D01*
X159464082Y-95070908D01*
X159464083Y-95070908D01*
X159404483Y-95064501D01*
X159404481Y-95064500D01*
X159404473Y-95064500D01*
X159404464Y-95064500D01*
X158458729Y-95064500D01*
X158458723Y-95064501D01*
X158399116Y-95070908D01*
X158264271Y-95121202D01*
X158264264Y-95121206D01*
X158149055Y-95207452D01*
X158149052Y-95207455D01*
X158062806Y-95322664D01*
X158062802Y-95322671D01*
X158012508Y-95457517D01*
X158006101Y-95517116D01*
X158006101Y-95517123D01*
X158006100Y-95517135D01*
X138252700Y-95517135D01*
X138252700Y-94468500D01*
X158476650Y-94468500D01*
X158493449Y-94479725D01*
X158493455Y-94479728D01*
X158661782Y-94549451D01*
X158661794Y-94549454D01*
X158840490Y-94584999D01*
X158840494Y-94585000D01*
X159022706Y-94585000D01*
X159022709Y-94584999D01*
X159201405Y-94549454D01*
X159201413Y-94549452D01*
X159369751Y-94479724D01*
X159369754Y-94479723D01*
X159386547Y-94468500D01*
X159386548Y-94468500D01*
X158931601Y-94013553D01*
X158931600Y-94013553D01*
X158476650Y-94468500D01*
X138252700Y-94468500D01*
X138252700Y-93421153D01*
X138699500Y-93421153D01*
X138699500Y-93578846D01*
X138730261Y-93733489D01*
X138730264Y-93733501D01*
X138790602Y-93879172D01*
X138790609Y-93879185D01*
X138878210Y-94010288D01*
X138878213Y-94010292D01*
X138989707Y-94121786D01*
X138989711Y-94121789D01*
X139120814Y-94209390D01*
X139120827Y-94209397D01*
X139266498Y-94269735D01*
X139266503Y-94269737D01*
X139421153Y-94300499D01*
X139421156Y-94300500D01*
X139421158Y-94300500D01*
X139578844Y-94300500D01*
X139578844Y-94300499D01*
X139733497Y-94269737D01*
X139879179Y-94209394D01*
X140010289Y-94121789D01*
X140121789Y-94010289D01*
X140209394Y-93879179D01*
X140212393Y-93871940D01*
X140259840Y-93757390D01*
X140269737Y-93733497D01*
X140278547Y-93689209D01*
X140310932Y-93627298D01*
X140371648Y-93592724D01*
X140400164Y-93589400D01*
X144567593Y-93589400D01*
X144567596Y-93589400D01*
X144717500Y-93549233D01*
X144851900Y-93471637D01*
X145014070Y-93309466D01*
X145075391Y-93275983D01*
X145145082Y-93280967D01*
X145201016Y-93322838D01*
X145216309Y-93349693D01*
X145217513Y-93352601D01*
X145217518Y-93352610D01*
X145301475Y-93478259D01*
X145301478Y-93478263D01*
X145408334Y-93585119D01*
X145408338Y-93585122D01*
X145533987Y-93669079D01*
X145533993Y-93669082D01*
X145533994Y-93669083D01*
X145673615Y-93726916D01*
X145728537Y-93737840D01*
X145820787Y-93756191D01*
X145823973Y-93757390D01*
X145825823Y-93757302D01*
X145858587Y-93770415D01*
X145876290Y-93780636D01*
X145876294Y-93780640D01*
X145876295Y-93780639D01*
X145926415Y-93809577D01*
X146079142Y-93850500D01*
X146079143Y-93850500D01*
X148318931Y-93850500D01*
X148318947Y-93850501D01*
X148326543Y-93850501D01*
X148484654Y-93850501D01*
X148484657Y-93850501D01*
X148637385Y-93809577D01*
X148687504Y-93780639D01*
X148774316Y-93730520D01*
X148886120Y-93618716D01*
X148886120Y-93618714D01*
X148896328Y-93608507D01*
X148896330Y-93608504D01*
X149365397Y-93139436D01*
X149426718Y-93105953D01*
X149496410Y-93110937D01*
X149521964Y-93124015D01*
X149526433Y-93127001D01*
X149675299Y-93188664D01*
X149833330Y-93220098D01*
X149833334Y-93220099D01*
X149833335Y-93220099D01*
X149994468Y-93220099D01*
X149994469Y-93220098D01*
X150152503Y-93188664D01*
X150301369Y-93127001D01*
X150435346Y-93037481D01*
X150549283Y-92923544D01*
X150638803Y-92789567D01*
X150700466Y-92640701D01*
X150731901Y-92482665D01*
X150731901Y-92321533D01*
X150705167Y-92187135D01*
X158006100Y-92187135D01*
X158006100Y-93132870D01*
X158006101Y-93132876D01*
X158012508Y-93192483D01*
X158048302Y-93288451D01*
X158053286Y-93358143D01*
X158046685Y-93379227D01*
X158042149Y-93390180D01*
X158042145Y-93390190D01*
X158006600Y-93568891D01*
X158006600Y-93751109D01*
X158042145Y-93929805D01*
X158042148Y-93929817D01*
X158111871Y-94098145D01*
X158123098Y-94114947D01*
X158616227Y-93621818D01*
X158643154Y-93607114D01*
X158668973Y-93590522D01*
X158675173Y-93589630D01*
X158677550Y-93588333D01*
X158691299Y-93586854D01*
X158681600Y-93610272D01*
X158681600Y-93709728D01*
X158719660Y-93801614D01*
X158789986Y-93871940D01*
X158881872Y-93910000D01*
X158981328Y-93910000D01*
X159073214Y-93871940D01*
X159143540Y-93801614D01*
X159181600Y-93709728D01*
X159181600Y-93610272D01*
X159173007Y-93589526D01*
X159226330Y-93605184D01*
X159246972Y-93621818D01*
X159740100Y-94114948D01*
X159751324Y-94098152D01*
X159751324Y-94098151D01*
X159821052Y-93929813D01*
X159821054Y-93929805D01*
X159856599Y-93751109D01*
X159856600Y-93751106D01*
X159856600Y-93568894D01*
X159856599Y-93568890D01*
X159821054Y-93390194D01*
X159821051Y-93390182D01*
X159816517Y-93379235D01*
X159809050Y-93309766D01*
X159814897Y-93288452D01*
X159850691Y-93192482D01*
X159851101Y-93188665D01*
X159857100Y-93132873D01*
X159857099Y-92187128D01*
X159850691Y-92127517D01*
X159808587Y-92014631D01*
X159800397Y-91992671D01*
X159800393Y-91992664D01*
X159714147Y-91877455D01*
X159714144Y-91877452D01*
X159598935Y-91791206D01*
X159598928Y-91791202D01*
X159464082Y-91740908D01*
X159464083Y-91740908D01*
X159404483Y-91734501D01*
X159404481Y-91734500D01*
X159404473Y-91734500D01*
X159404464Y-91734500D01*
X158458729Y-91734500D01*
X158458723Y-91734501D01*
X158399116Y-91740908D01*
X158264271Y-91791202D01*
X158264264Y-91791206D01*
X158149055Y-91877452D01*
X158149052Y-91877455D01*
X158062806Y-91992664D01*
X158062802Y-91992671D01*
X158012508Y-92127517D01*
X158006101Y-92187116D01*
X158006101Y-92187123D01*
X158006100Y-92187135D01*
X150705167Y-92187135D01*
X150705166Y-92187128D01*
X150700467Y-92163504D01*
X150700466Y-92163497D01*
X150669634Y-92089064D01*
X150638804Y-92014632D01*
X150549281Y-91880651D01*
X150435348Y-91766718D01*
X150301367Y-91677195D01*
X150152503Y-91615534D01*
X150152495Y-91615532D01*
X149994471Y-91584099D01*
X149994467Y-91584099D01*
X149942483Y-91584099D01*
X149875444Y-91564414D01*
X149829689Y-91511610D01*
X149819745Y-91442452D01*
X149848770Y-91378896D01*
X149854802Y-91372418D01*
X150178335Y-91048886D01*
X150786735Y-90440486D01*
X150799651Y-90421156D01*
X158006099Y-90421156D01*
X158041665Y-90599952D01*
X158041668Y-90599962D01*
X158111431Y-90768387D01*
X158111433Y-90768391D01*
X158212713Y-90919967D01*
X158212719Y-90919975D01*
X158341624Y-91048880D01*
X158341632Y-91048886D01*
X158493208Y-91150166D01*
X158493212Y-91150168D01*
X158661637Y-91219931D01*
X158661642Y-91219933D01*
X158661646Y-91219933D01*
X158661647Y-91219934D01*
X158840443Y-91255500D01*
X158840446Y-91255500D01*
X159022756Y-91255500D01*
X159143045Y-91231572D01*
X159201558Y-91219933D01*
X159369989Y-91150167D01*
X159369991Y-91150166D01*
X159445272Y-91099864D01*
X159521572Y-91048883D01*
X159650483Y-90919972D01*
X159751767Y-90768389D01*
X159821533Y-90599958D01*
X159847428Y-90469780D01*
X159857100Y-90421156D01*
X159857100Y-90238843D01*
X159821534Y-90060046D01*
X159821533Y-90060043D01*
X159821533Y-90060042D01*
X159816774Y-90048555D01*
X159809303Y-89979088D01*
X159815148Y-89957776D01*
X159850691Y-89862483D01*
X159857100Y-89802873D01*
X159857099Y-88857128D01*
X159850691Y-88797517D01*
X159800396Y-88662669D01*
X159800395Y-88662668D01*
X159800393Y-88662664D01*
X159714147Y-88547455D01*
X159714144Y-88547452D01*
X159598935Y-88461206D01*
X159598928Y-88461202D01*
X159464082Y-88410908D01*
X159464083Y-88410908D01*
X159404483Y-88404501D01*
X159404481Y-88404500D01*
X159404473Y-88404500D01*
X159404464Y-88404500D01*
X158458729Y-88404500D01*
X158458723Y-88404501D01*
X158399116Y-88410908D01*
X158264271Y-88461202D01*
X158264264Y-88461206D01*
X158149055Y-88547452D01*
X158149052Y-88547455D01*
X158062806Y-88662664D01*
X158062802Y-88662671D01*
X158012508Y-88797517D01*
X158006101Y-88857116D01*
X158006101Y-88857123D01*
X158006100Y-88857135D01*
X158006100Y-89802870D01*
X158006101Y-89802876D01*
X158012508Y-89862483D01*
X158048047Y-89957765D01*
X158053031Y-90027456D01*
X158046428Y-90048545D01*
X158041669Y-90060034D01*
X158041665Y-90060047D01*
X158006100Y-90238843D01*
X158006100Y-90238846D01*
X158006100Y-90421154D01*
X158006100Y-90421156D01*
X158006099Y-90421156D01*
X150799651Y-90421156D01*
X150862356Y-90327311D01*
X150914445Y-90201557D01*
X150941000Y-90068057D01*
X150941000Y-89931943D01*
X150941000Y-87091156D01*
X158006099Y-87091156D01*
X158041665Y-87269952D01*
X158041668Y-87269962D01*
X158111431Y-87438387D01*
X158111433Y-87438391D01*
X158212713Y-87589967D01*
X158212719Y-87589975D01*
X158341624Y-87718880D01*
X158341632Y-87718886D01*
X158493208Y-87820166D01*
X158493212Y-87820168D01*
X158661637Y-87889931D01*
X158661642Y-87889933D01*
X158661646Y-87889933D01*
X158661647Y-87889934D01*
X158840443Y-87925500D01*
X158840446Y-87925500D01*
X159022756Y-87925500D01*
X159143045Y-87901572D01*
X159201558Y-87889933D01*
X159369989Y-87820167D01*
X159369991Y-87820166D01*
X159445272Y-87769864D01*
X159521572Y-87718883D01*
X159650483Y-87589972D01*
X159751767Y-87438389D01*
X159821533Y-87269958D01*
X159844652Y-87153733D01*
X159857100Y-87091156D01*
X159857100Y-86908843D01*
X159821534Y-86730046D01*
X159821533Y-86730043D01*
X159821533Y-86730042D01*
X159816774Y-86718555D01*
X159809303Y-86649088D01*
X159815148Y-86627776D01*
X159850691Y-86532483D01*
X159857100Y-86472873D01*
X159857099Y-85527128D01*
X159850691Y-85467517D01*
X159841321Y-85442396D01*
X159800397Y-85332671D01*
X159800393Y-85332664D01*
X159714147Y-85217455D01*
X159714144Y-85217452D01*
X159598935Y-85131206D01*
X159598928Y-85131202D01*
X159464082Y-85080908D01*
X159464083Y-85080908D01*
X159404483Y-85074501D01*
X159404481Y-85074500D01*
X159404473Y-85074500D01*
X159404464Y-85074500D01*
X158458729Y-85074500D01*
X158458723Y-85074501D01*
X158399116Y-85080908D01*
X158264271Y-85131202D01*
X158264264Y-85131206D01*
X158149055Y-85217452D01*
X158149052Y-85217455D01*
X158062806Y-85332664D01*
X158062802Y-85332671D01*
X158012508Y-85467517D01*
X158006101Y-85527116D01*
X158006101Y-85527123D01*
X158006100Y-85527135D01*
X158006100Y-86472870D01*
X158006101Y-86472876D01*
X158012508Y-86532483D01*
X158048047Y-86627765D01*
X158053031Y-86697456D01*
X158046428Y-86718545D01*
X158041669Y-86730034D01*
X158041665Y-86730047D01*
X158006100Y-86908843D01*
X158006100Y-86908846D01*
X158006100Y-87091154D01*
X158006100Y-87091156D01*
X158006099Y-87091156D01*
X150941000Y-87091156D01*
X150941000Y-86300942D01*
X150941000Y-86300939D01*
X150914446Y-86167448D01*
X150914445Y-86167447D01*
X150914445Y-86167443D01*
X150892903Y-86115435D01*
X150862359Y-86041695D01*
X150862352Y-86041682D01*
X150786735Y-85928514D01*
X150782835Y-85924614D01*
X150690487Y-85832266D01*
X149207041Y-84348819D01*
X149180161Y-84308590D01*
X149142887Y-84218601D01*
X149142880Y-84218588D01*
X149058923Y-84092939D01*
X149058920Y-84092935D01*
X148952064Y-83986079D01*
X148952060Y-83986076D01*
X148826411Y-83902119D01*
X148826402Y-83902114D01*
X148686784Y-83844283D01*
X148686776Y-83844281D01*
X148538566Y-83814800D01*
X148538563Y-83814800D01*
X148387437Y-83814800D01*
X148387434Y-83814800D01*
X148239223Y-83844281D01*
X148239215Y-83844283D01*
X148099597Y-83902114D01*
X148099588Y-83902119D01*
X147973939Y-83986076D01*
X147973935Y-83986079D01*
X147867079Y-84092935D01*
X147867076Y-84092939D01*
X147783119Y-84218588D01*
X147783114Y-84218597D01*
X147725283Y-84358215D01*
X147725281Y-84358223D01*
X147695800Y-84506432D01*
X147695800Y-84657567D01*
X147725281Y-84805776D01*
X147725283Y-84805784D01*
X147783114Y-84945402D01*
X147783119Y-84945411D01*
X147867076Y-85071060D01*
X147867079Y-85071064D01*
X147973935Y-85177920D01*
X147973939Y-85177923D01*
X148099588Y-85261880D01*
X148099601Y-85261887D01*
X148189590Y-85299161D01*
X148229819Y-85326041D01*
X148882559Y-85978781D01*
X149522681Y-86618902D01*
X149556166Y-86680225D01*
X149559000Y-86706583D01*
X149559000Y-88888159D01*
X149539315Y-88955198D01*
X149486511Y-89000953D01*
X149417353Y-89010897D01*
X149410809Y-89009776D01*
X149303846Y-88988500D01*
X149303842Y-88988500D01*
X149146158Y-88988500D01*
X149146155Y-88988500D01*
X148991510Y-89019261D01*
X148991498Y-89019264D01*
X148845827Y-89079602D01*
X148845814Y-89079609D01*
X148714711Y-89167210D01*
X148710001Y-89171076D01*
X148708256Y-89168950D01*
X148657317Y-89196766D01*
X148630959Y-89199600D01*
X147623404Y-89199600D01*
X147473500Y-89239767D01*
X147473498Y-89239767D01*
X147473498Y-89239768D01*
X147445244Y-89256081D01*
X147445242Y-89256082D01*
X147339101Y-89317361D01*
X147339098Y-89317363D01*
X144282182Y-92374281D01*
X144220859Y-92407766D01*
X144194501Y-92410600D01*
X139922404Y-92410600D01*
X139772500Y-92450767D01*
X139772498Y-92450767D01*
X139772498Y-92450768D01*
X139745418Y-92466403D01*
X139745416Y-92466404D01*
X139638101Y-92528361D01*
X139638098Y-92528363D01*
X139503281Y-92663181D01*
X139441958Y-92696666D01*
X139427154Y-92698257D01*
X139427218Y-92698903D01*
X139421153Y-92699500D01*
X139266510Y-92730261D01*
X139266498Y-92730264D01*
X139120827Y-92790602D01*
X139120814Y-92790609D01*
X138989711Y-92878210D01*
X138989707Y-92878213D01*
X138878213Y-92989707D01*
X138878210Y-92989711D01*
X138790609Y-93120814D01*
X138790602Y-93120827D01*
X138730264Y-93266498D01*
X138730261Y-93266510D01*
X138699500Y-93421153D01*
X138252700Y-93421153D01*
X138252700Y-83490432D01*
X142107800Y-83490432D01*
X142107800Y-83641567D01*
X142137281Y-83789776D01*
X142137283Y-83789784D01*
X142195114Y-83929402D01*
X142195116Y-83929405D01*
X142264702Y-84033548D01*
X142285580Y-84100224D01*
X142285600Y-84102438D01*
X142285600Y-85002904D01*
X142285600Y-85158096D01*
X142313411Y-85261887D01*
X142325768Y-85308003D01*
X142380309Y-85402469D01*
X142403363Y-85442400D01*
X143927363Y-86966400D01*
X144037100Y-87076137D01*
X144131569Y-87130679D01*
X144171496Y-87153731D01*
X144171497Y-87153731D01*
X144171500Y-87153733D01*
X144321404Y-87193900D01*
X145132561Y-87193900D01*
X145199600Y-87213585D01*
X145201452Y-87214798D01*
X145305588Y-87284380D01*
X145305594Y-87284383D01*
X145305595Y-87284384D01*
X145445216Y-87342217D01*
X145593432Y-87371699D01*
X145593435Y-87371700D01*
X145593437Y-87371700D01*
X145744565Y-87371700D01*
X145744566Y-87371699D01*
X145892784Y-87342217D01*
X146032405Y-87284384D01*
X146158061Y-87200423D01*
X146264923Y-87093561D01*
X146348884Y-86967905D01*
X146406717Y-86828284D01*
X146436200Y-86680063D01*
X146436200Y-86528937D01*
X146436200Y-86528934D01*
X146436199Y-86528932D01*
X146425048Y-86472872D01*
X146406717Y-86380716D01*
X146348884Y-86241095D01*
X146348883Y-86241094D01*
X146348880Y-86241088D01*
X146264923Y-86115439D01*
X146264920Y-86115435D01*
X146158064Y-86008579D01*
X146158060Y-86008576D01*
X146032411Y-85924619D01*
X146032402Y-85924614D01*
X145892784Y-85866783D01*
X145892776Y-85866781D01*
X145744566Y-85837300D01*
X145744563Y-85837300D01*
X145593437Y-85837300D01*
X145593434Y-85837300D01*
X145445223Y-85866781D01*
X145445215Y-85866783D01*
X145305597Y-85924614D01*
X145305588Y-85924619D01*
X145201452Y-85994202D01*
X145134775Y-86015080D01*
X145132561Y-86015100D01*
X144694499Y-86015100D01*
X144627460Y-85995415D01*
X144606818Y-85978781D01*
X143500719Y-84872682D01*
X143467234Y-84811359D01*
X143464400Y-84785001D01*
X143464400Y-84102438D01*
X143484085Y-84035399D01*
X143485253Y-84033613D01*
X143554884Y-83929405D01*
X143612717Y-83789784D01*
X143642200Y-83641563D01*
X143642200Y-83490437D01*
X143642200Y-83490434D01*
X143642199Y-83490432D01*
X143612718Y-83342223D01*
X143612717Y-83342216D01*
X143554884Y-83202595D01*
X143554883Y-83202594D01*
X143554880Y-83202588D01*
X143470923Y-83076939D01*
X143470920Y-83076935D01*
X143364064Y-82970079D01*
X143364060Y-82970076D01*
X143238411Y-82886119D01*
X143238402Y-82886114D01*
X143098784Y-82828283D01*
X143098776Y-82828281D01*
X142950566Y-82798800D01*
X142950563Y-82798800D01*
X142799437Y-82798800D01*
X142799434Y-82798800D01*
X142651223Y-82828281D01*
X142651215Y-82828283D01*
X142511597Y-82886114D01*
X142511588Y-82886119D01*
X142385939Y-82970076D01*
X142385935Y-82970079D01*
X142279079Y-83076935D01*
X142279076Y-83076939D01*
X142195119Y-83202588D01*
X142195114Y-83202597D01*
X142137283Y-83342215D01*
X142137281Y-83342223D01*
X142107800Y-83490432D01*
X138252700Y-83490432D01*
X138252700Y-79350504D01*
X140984000Y-79350504D01*
X140984000Y-79749000D01*
X141684000Y-79749000D01*
X141684000Y-80249000D01*
X140984000Y-80249000D01*
X140984000Y-80647495D01*
X141022427Y-80840681D01*
X141022430Y-80840693D01*
X141097807Y-81022671D01*
X141097814Y-81022684D01*
X141207248Y-81186462D01*
X141207251Y-81186466D01*
X141346533Y-81325748D01*
X141346537Y-81325751D01*
X141510315Y-81435185D01*
X141510328Y-81435192D01*
X141692308Y-81510569D01*
X141734000Y-81518862D01*
X141734000Y-80715988D01*
X141743940Y-80733205D01*
X141799795Y-80789060D01*
X141868204Y-80828556D01*
X141944504Y-80849000D01*
X142023496Y-80849000D01*
X142099796Y-80828556D01*
X142168205Y-80789060D01*
X142224060Y-80733205D01*
X142234000Y-80715988D01*
X142234000Y-81518862D01*
X142275690Y-81510569D01*
X142275692Y-81510569D01*
X142457671Y-81435192D01*
X142457686Y-81435184D01*
X142561628Y-81365731D01*
X142628305Y-81344852D01*
X142695686Y-81363336D01*
X142718201Y-81381151D01*
X142812122Y-81475072D01*
X142957604Y-81563019D01*
X142957603Y-81563019D01*
X143119894Y-81613590D01*
X143119893Y-81613590D01*
X143190408Y-81619998D01*
X143190426Y-81619999D01*
X143196999Y-81619998D01*
X143197000Y-81619998D01*
X143197000Y-80769000D01*
X143216685Y-80701961D01*
X143269489Y-80656206D01*
X143321000Y-80645000D01*
X143573000Y-80645000D01*
X143640039Y-80664685D01*
X143685794Y-80717489D01*
X143697000Y-80769000D01*
X143697000Y-81619999D01*
X143703581Y-81619999D01*
X143774102Y-81613591D01*
X143774107Y-81613590D01*
X143936396Y-81563018D01*
X144081877Y-81475072D01*
X144081878Y-81475071D01*
X144183963Y-81372985D01*
X144245286Y-81339499D01*
X144314977Y-81344483D01*
X144359326Y-81372984D01*
X144461811Y-81475469D01*
X144461813Y-81475470D01*
X144461815Y-81475472D01*
X144607394Y-81563478D01*
X144769804Y-81614086D01*
X144840384Y-81620500D01*
X144840387Y-81620500D01*
X145353613Y-81620500D01*
X145353616Y-81620500D01*
X145424196Y-81614086D01*
X145586606Y-81563478D01*
X145732185Y-81475472D01*
X145852472Y-81355185D01*
X145940478Y-81209606D01*
X145991086Y-81047196D01*
X145997500Y-80976616D01*
X145997500Y-80313386D01*
X146610500Y-80313386D01*
X146610500Y-80976613D01*
X146616913Y-81047192D01*
X146616913Y-81047194D01*
X146616914Y-81047196D01*
X146667522Y-81209606D01*
X146749281Y-81344852D01*
X146755530Y-81355188D01*
X146875811Y-81475469D01*
X146875813Y-81475470D01*
X146875815Y-81475472D01*
X147021394Y-81563478D01*
X147183804Y-81614086D01*
X147254384Y-81620500D01*
X147254387Y-81620500D01*
X147767613Y-81620500D01*
X147767616Y-81620500D01*
X147838196Y-81614086D01*
X148000606Y-81563478D01*
X148146185Y-81475472D01*
X148248673Y-81372983D01*
X148309994Y-81339499D01*
X148379685Y-81344483D01*
X148424034Y-81372984D01*
X148526122Y-81475072D01*
X148671604Y-81563019D01*
X148671603Y-81563019D01*
X148833894Y-81613590D01*
X148833893Y-81613590D01*
X148904408Y-81619998D01*
X148904426Y-81619999D01*
X148910999Y-81619998D01*
X148911000Y-81619998D01*
X148911000Y-80769000D01*
X148930685Y-80701961D01*
X148983489Y-80656206D01*
X149035000Y-80645000D01*
X149287000Y-80645000D01*
X149354039Y-80664685D01*
X149399794Y-80717489D01*
X149411000Y-80769000D01*
X149411000Y-81619999D01*
X149417581Y-81619999D01*
X149488102Y-81613591D01*
X149488107Y-81613590D01*
X149650396Y-81563018D01*
X149795877Y-81475072D01*
X149795878Y-81475071D01*
X149889796Y-81381152D01*
X149951119Y-81347666D01*
X150020810Y-81352650D01*
X150046369Y-81365730D01*
X150150315Y-81435185D01*
X150150328Y-81435192D01*
X150332308Y-81510569D01*
X150374000Y-81518862D01*
X150374000Y-80715988D01*
X150383940Y-80733205D01*
X150439795Y-80789060D01*
X150508204Y-80828556D01*
X150584504Y-80849000D01*
X150663496Y-80849000D01*
X150739796Y-80828556D01*
X150808205Y-80789060D01*
X150864060Y-80733205D01*
X150874000Y-80715988D01*
X150874000Y-81518862D01*
X150915690Y-81510569D01*
X150915692Y-81510569D01*
X151097671Y-81435192D01*
X151097684Y-81435185D01*
X151261462Y-81325751D01*
X151261466Y-81325748D01*
X151400748Y-81186466D01*
X151400751Y-81186462D01*
X151510185Y-81022684D01*
X151510192Y-81022671D01*
X151585569Y-80840693D01*
X151585572Y-80840681D01*
X151623999Y-80647495D01*
X151624000Y-80647492D01*
X151624000Y-80249000D01*
X150924000Y-80249000D01*
X150924000Y-79749000D01*
X151624000Y-79749000D01*
X151624000Y-79350508D01*
X151623999Y-79350504D01*
X151585572Y-79157318D01*
X151585569Y-79157306D01*
X151510192Y-78975328D01*
X151510185Y-78975315D01*
X151400751Y-78811537D01*
X151400748Y-78811533D01*
X151261466Y-78672251D01*
X151261462Y-78672248D01*
X151097684Y-78562814D01*
X151097671Y-78562807D01*
X150915691Y-78487429D01*
X150915683Y-78487427D01*
X150874000Y-78479135D01*
X150874000Y-79282011D01*
X150864060Y-79264795D01*
X150808205Y-79208940D01*
X150739796Y-79169444D01*
X150663496Y-79149000D01*
X150584504Y-79149000D01*
X150508204Y-79169444D01*
X150439795Y-79208940D01*
X150383940Y-79264795D01*
X150374000Y-79282011D01*
X150374000Y-78479136D01*
X150373999Y-78479135D01*
X150332316Y-78487427D01*
X150332308Y-78487429D01*
X150150328Y-78562807D01*
X150150315Y-78562814D01*
X149986537Y-78672248D01*
X149986533Y-78672251D01*
X149847251Y-78811533D01*
X149847248Y-78811537D01*
X149737814Y-78975315D01*
X149737809Y-78975324D01*
X149733866Y-78984845D01*
X149690023Y-79039247D01*
X149623728Y-79061310D01*
X149556030Y-79044029D01*
X149550597Y-79040351D01*
X149416136Y-78962719D01*
X149342950Y-78943109D01*
X149269766Y-78923500D01*
X149118234Y-78923500D01*
X148971863Y-78962719D01*
X148840635Y-79038485D01*
X148840632Y-79038487D01*
X148733487Y-79145632D01*
X148733485Y-79145635D01*
X148657719Y-79276863D01*
X148631914Y-79373172D01*
X148618500Y-79423234D01*
X148618500Y-79574766D01*
X148636886Y-79643384D01*
X148635223Y-79713234D01*
X148597484Y-79769903D01*
X148416726Y-79923760D01*
X148389178Y-79936047D01*
X148362711Y-79950500D01*
X148357599Y-79950134D01*
X148352917Y-79952223D01*
X148323100Y-79947667D01*
X148293019Y-79945516D01*
X148288028Y-79942308D01*
X148283849Y-79941670D01*
X148275297Y-79934126D01*
X148248673Y-79917016D01*
X148185418Y-79853761D01*
X148151934Y-79792437D01*
X148149100Y-79766080D01*
X148149100Y-79573765D01*
X148168785Y-79506726D01*
X148169998Y-79504874D01*
X148257990Y-79373185D01*
X148257990Y-79373184D01*
X148257994Y-79373179D01*
X148318337Y-79227497D01*
X148349100Y-79072842D01*
X148349100Y-78915158D01*
X148349100Y-78915155D01*
X148349099Y-78915153D01*
X148328488Y-78811537D01*
X148318337Y-78760503D01*
X148281781Y-78672248D01*
X148257997Y-78614827D01*
X148257990Y-78614814D01*
X148170389Y-78483711D01*
X148170386Y-78483707D01*
X148058892Y-78372213D01*
X148058888Y-78372210D01*
X147927785Y-78284609D01*
X147927772Y-78284602D01*
X147782101Y-78224264D01*
X147782089Y-78224261D01*
X147627445Y-78193500D01*
X147627442Y-78193500D01*
X147469758Y-78193500D01*
X147469755Y-78193500D01*
X147315110Y-78224261D01*
X147315098Y-78224264D01*
X147169427Y-78284602D01*
X147169414Y-78284609D01*
X147038311Y-78372210D01*
X147038307Y-78372213D01*
X146926813Y-78483707D01*
X146926810Y-78483711D01*
X146839209Y-78614814D01*
X146839202Y-78614827D01*
X146778864Y-78760498D01*
X146778861Y-78760510D01*
X146748100Y-78915153D01*
X146748100Y-79072846D01*
X146778861Y-79227489D01*
X146778864Y-79227501D01*
X146839202Y-79373172D01*
X146839209Y-79373185D01*
X146927202Y-79504874D01*
X146932852Y-79522920D01*
X146943077Y-79538830D01*
X146947528Y-79569789D01*
X146948080Y-79571551D01*
X146948100Y-79573765D01*
X146948100Y-79700893D01*
X146928415Y-79767932D01*
X146888253Y-79807008D01*
X146875816Y-79814526D01*
X146875811Y-79814530D01*
X146755530Y-79934811D01*
X146667522Y-80080393D01*
X146616913Y-80242807D01*
X146610500Y-80313386D01*
X145997500Y-80313386D01*
X145997500Y-80313384D01*
X145991086Y-80242804D01*
X145940478Y-80080394D01*
X145852472Y-79934815D01*
X145852470Y-79934813D01*
X145852469Y-79934811D01*
X145732188Y-79814530D01*
X145732181Y-79814526D01*
X145586606Y-79726522D01*
X145424196Y-79675914D01*
X145424194Y-79675913D01*
X145424192Y-79675913D01*
X145374778Y-79671423D01*
X145353616Y-79669500D01*
X145353613Y-79669500D01*
X145294787Y-79669500D01*
X145227748Y-79649815D01*
X145181993Y-79597011D01*
X145172049Y-79527853D01*
X145191685Y-79476609D01*
X145260790Y-79373185D01*
X145260790Y-79373184D01*
X145260794Y-79373179D01*
X145321137Y-79227497D01*
X145351900Y-79072842D01*
X145351900Y-78915158D01*
X145351900Y-78915155D01*
X145351899Y-78915153D01*
X145331288Y-78811537D01*
X145321137Y-78760503D01*
X145284581Y-78672248D01*
X145260797Y-78614827D01*
X145260790Y-78614814D01*
X145173189Y-78483711D01*
X145173186Y-78483707D01*
X145061692Y-78372213D01*
X145061688Y-78372210D01*
X144930585Y-78284609D01*
X144930572Y-78284602D01*
X144784901Y-78224264D01*
X144784889Y-78224261D01*
X144630245Y-78193500D01*
X144630242Y-78193500D01*
X144472558Y-78193500D01*
X144472555Y-78193500D01*
X144317910Y-78224261D01*
X144317898Y-78224264D01*
X144172227Y-78284602D01*
X144172214Y-78284609D01*
X144041111Y-78372210D01*
X144041107Y-78372213D01*
X143929613Y-78483707D01*
X143929610Y-78483711D01*
X143842009Y-78614814D01*
X143842002Y-78614827D01*
X143781664Y-78760498D01*
X143781661Y-78760508D01*
X143761939Y-78859659D01*
X143729554Y-78921570D01*
X143668838Y-78956144D01*
X143608230Y-78955242D01*
X143489766Y-78923500D01*
X143338234Y-78923500D01*
X143191863Y-78962719D01*
X143100428Y-79015510D01*
X143060635Y-79038485D01*
X143060633Y-79038486D01*
X143053597Y-79042549D01*
X143052327Y-79040349D01*
X142998995Y-79060960D01*
X142930552Y-79046914D01*
X142880568Y-78998094D01*
X142874131Y-78984838D01*
X142870192Y-78975328D01*
X142870185Y-78975315D01*
X142760751Y-78811537D01*
X142760748Y-78811533D01*
X142621466Y-78672251D01*
X142621462Y-78672248D01*
X142457684Y-78562814D01*
X142457671Y-78562807D01*
X142275691Y-78487429D01*
X142275683Y-78487427D01*
X142234000Y-78479135D01*
X142234000Y-79282011D01*
X142224060Y-79264795D01*
X142168205Y-79208940D01*
X142099796Y-79169444D01*
X142023496Y-79149000D01*
X141944504Y-79149000D01*
X141868204Y-79169444D01*
X141799795Y-79208940D01*
X141743940Y-79264795D01*
X141734000Y-79282011D01*
X141734000Y-78479136D01*
X141733999Y-78479135D01*
X141692316Y-78487427D01*
X141692308Y-78487429D01*
X141510328Y-78562807D01*
X141510315Y-78562814D01*
X141346537Y-78672248D01*
X141346533Y-78672251D01*
X141207251Y-78811533D01*
X141207248Y-78811537D01*
X141097814Y-78975315D01*
X141097807Y-78975328D01*
X141022430Y-79157306D01*
X141022427Y-79157318D01*
X140984000Y-79350504D01*
X138252700Y-79350504D01*
X138252700Y-75738550D01*
X138252926Y-75731063D01*
X138270485Y-75440776D01*
X138272290Y-75425912D01*
X138291607Y-75320504D01*
X140984000Y-75320504D01*
X140984000Y-75569000D01*
X141684000Y-75569000D01*
X141684000Y-76069000D01*
X140984000Y-76069000D01*
X140984000Y-76317495D01*
X141022427Y-76510681D01*
X141022430Y-76510693D01*
X141097807Y-76692671D01*
X141097814Y-76692684D01*
X141207248Y-76856462D01*
X141207251Y-76856466D01*
X141346533Y-76995748D01*
X141346537Y-76995751D01*
X141510315Y-77105185D01*
X141510328Y-77105192D01*
X141692308Y-77180569D01*
X141734000Y-77188862D01*
X141734000Y-76385988D01*
X141743940Y-76403205D01*
X141799795Y-76459060D01*
X141868204Y-76498556D01*
X141944504Y-76519000D01*
X142023496Y-76519000D01*
X142099796Y-76498556D01*
X142168205Y-76459060D01*
X142224060Y-76403205D01*
X142234000Y-76385988D01*
X142234000Y-77188862D01*
X142275690Y-77180569D01*
X142275692Y-77180569D01*
X142457671Y-77105192D01*
X142457684Y-77105185D01*
X142621462Y-76995751D01*
X142621466Y-76995748D01*
X142760748Y-76856466D01*
X142760751Y-76856462D01*
X142870185Y-76692684D01*
X142870192Y-76692671D01*
X142945569Y-76510693D01*
X142945572Y-76510681D01*
X142983999Y-76317495D01*
X142984000Y-76317492D01*
X142984000Y-76069000D01*
X142284000Y-76069000D01*
X142284000Y-75569000D01*
X142984000Y-75569000D01*
X142984000Y-75320508D01*
X142983999Y-75320504D01*
X149624000Y-75320504D01*
X149624000Y-75569000D01*
X150324000Y-75569000D01*
X150324000Y-76069000D01*
X149624000Y-76069000D01*
X149624000Y-76317495D01*
X149662427Y-76510681D01*
X149662430Y-76510693D01*
X149737807Y-76692671D01*
X149737814Y-76692684D01*
X149847248Y-76856462D01*
X149847251Y-76856466D01*
X149986533Y-76995748D01*
X149986537Y-76995751D01*
X150150315Y-77105185D01*
X150150328Y-77105192D01*
X150332308Y-77180569D01*
X150374000Y-77188862D01*
X150374000Y-76385988D01*
X150383940Y-76403205D01*
X150439795Y-76459060D01*
X150508204Y-76498556D01*
X150584504Y-76519000D01*
X150663496Y-76519000D01*
X150739796Y-76498556D01*
X150808205Y-76459060D01*
X150864060Y-76403205D01*
X150874000Y-76385988D01*
X150874000Y-77188862D01*
X150915690Y-77180569D01*
X150915692Y-77180569D01*
X151097671Y-77105192D01*
X151097684Y-77105185D01*
X151261462Y-76995751D01*
X151261466Y-76995748D01*
X151400748Y-76856466D01*
X151400751Y-76856462D01*
X151510185Y-76692684D01*
X151510192Y-76692671D01*
X151585569Y-76510693D01*
X151585572Y-76510681D01*
X151623999Y-76317495D01*
X151624000Y-76317492D01*
X151624000Y-76069000D01*
X150924000Y-76069000D01*
X150924000Y-75569000D01*
X151624000Y-75569000D01*
X151624000Y-75320508D01*
X151623999Y-75320504D01*
X151585572Y-75127318D01*
X151585569Y-75127306D01*
X151510192Y-74945328D01*
X151510185Y-74945315D01*
X151400751Y-74781537D01*
X151400748Y-74781533D01*
X151261466Y-74642251D01*
X151261462Y-74642248D01*
X151097684Y-74532814D01*
X151097671Y-74532807D01*
X150915691Y-74457429D01*
X150915683Y-74457427D01*
X150874000Y-74449135D01*
X150874000Y-75252011D01*
X150864060Y-75234795D01*
X150808205Y-75178940D01*
X150739796Y-75139444D01*
X150663496Y-75119000D01*
X150584504Y-75119000D01*
X150508204Y-75139444D01*
X150439795Y-75178940D01*
X150383940Y-75234795D01*
X150374000Y-75252011D01*
X150374000Y-74449136D01*
X150373999Y-74449135D01*
X150332316Y-74457427D01*
X150332308Y-74457429D01*
X150150328Y-74532807D01*
X150150315Y-74532814D01*
X149986537Y-74642248D01*
X149986533Y-74642251D01*
X149847251Y-74781533D01*
X149847248Y-74781537D01*
X149737814Y-74945315D01*
X149737807Y-74945328D01*
X149662430Y-75127306D01*
X149662427Y-75127318D01*
X149624000Y-75320504D01*
X142983999Y-75320504D01*
X142945572Y-75127318D01*
X142945569Y-75127306D01*
X142870192Y-74945328D01*
X142870185Y-74945315D01*
X142760751Y-74781537D01*
X142760748Y-74781533D01*
X142621466Y-74642251D01*
X142621462Y-74642248D01*
X142457684Y-74532814D01*
X142457671Y-74532807D01*
X142275691Y-74457429D01*
X142275683Y-74457427D01*
X142234000Y-74449135D01*
X142234000Y-75252011D01*
X142224060Y-75234795D01*
X142168205Y-75178940D01*
X142099796Y-75139444D01*
X142023496Y-75119000D01*
X141944504Y-75119000D01*
X141868204Y-75139444D01*
X141799795Y-75178940D01*
X141743940Y-75234795D01*
X141734000Y-75252011D01*
X141734000Y-74449136D01*
X141733999Y-74449135D01*
X141692316Y-74457427D01*
X141692308Y-74457429D01*
X141510328Y-74532807D01*
X141510315Y-74532814D01*
X141346537Y-74642248D01*
X141346533Y-74642251D01*
X141207251Y-74781533D01*
X141207248Y-74781537D01*
X141097814Y-74945315D01*
X141097807Y-74945328D01*
X141022430Y-75127306D01*
X141022427Y-75127318D01*
X140984000Y-75320504D01*
X138291607Y-75320504D01*
X138296818Y-75292066D01*
X138296818Y-75292065D01*
X138324035Y-75143547D01*
X138327619Y-75129009D01*
X138384860Y-74945315D01*
X138413019Y-74854947D01*
X138418321Y-74840967D01*
X138536148Y-74579166D01*
X138543093Y-74565934D01*
X138691616Y-74320247D01*
X138700103Y-74307951D01*
X138877158Y-74081957D01*
X138887073Y-74070766D01*
X139090066Y-73867773D01*
X139101257Y-73857858D01*
X139327251Y-73680803D01*
X139339547Y-73672316D01*
X139585234Y-73523793D01*
X139598466Y-73516848D01*
X139860267Y-73399021D01*
X139874247Y-73393719D01*
X140148313Y-73308317D01*
X140162843Y-73304735D01*
X140445215Y-73252989D01*
X140460073Y-73251185D01*
X140750364Y-73233626D01*
X140757851Y-73233400D01*
X140808951Y-73233400D01*
X158444449Y-73233400D01*
X158495549Y-73233400D01*
X158503036Y-73233626D01*
G37*
%TD.AperFunction*%
%TD*%
M02*
